# 3ds Max Wavefront OBJ Exporter v0.97b - (c)2007 guruware
# File Created: 16.09.2021 19:54:26

mtllib o`t 3.mtl

#
# object plant_smallLeaf
#

v  2.4292 0.0773 1.3413
v  1.1697 -0.3677 1.6529
v  1.8583 -0.3677 0.1762
v  1.1098 -0.2177 1.6249
v  2.3693 0.2273 1.3133
v  1.7984 -0.2177 0.1482
v  0.7540 -1.0652 1.0805
v  1.0769 -0.2489 1.6096
v  1.1527 -1.0652 0.2256
v  1.7655 -0.2489 0.1329
v  1.2025 -0.3365 1.6682
v  0.8796 -1.1529 1.1391
v  1.2783 -1.1529 0.2842
v  1.8911 -0.3365 0.1915
v  1.8283 -0.2927 0.1622
v  1.1397 -0.2927 1.6389
v  2.3992 0.1523 1.3273
v  1.2155 -1.1090 0.2549
v  0.8168 -1.1090 1.1098
# 19 vertices

vn 0.8912 -0.1821 0.4154
vn -0.4253 -0.6559 0.6237
vn 0.2046 -0.6558 -0.7267
vn -0.8281 0.3527 0.4358
vn 0.4794 0.8486 0.2236
vn -0.1984 0.3527 -0.9145
vn -0.9704 -0.2343 0.0578
vn -0.4846 0.7035 0.5199
vn -0.5795 -0.2343 -0.7806
vn 0.0868 0.7037 -0.7052
vn 0.3756 0.1032 0.9210
vn -0.0552 -0.8730 0.4846
vn 0.3358 -0.8730 -0.3538
vn 0.9469 0.1031 -0.3044
vn -0.1986 0.3526 -0.9144
vn 0.4793 0.8487 0.2236
# 16 vertex normals

vt 5.0000 -8.0420 0.0000
vt 5.1292 -7.8819 0.0000
vt 4.8708 -7.8819 0.0000
vt 5.1292 7.8819 0.0000
vt 5.0000 8.0420 0.0000
vt 4.8708 7.8819 0.0000
vt 5.0748 0.0000 0.0000
vt 5.1292 0.1294 0.0000
vt 4.9252 0.0000 0.0000
vt 4.8708 0.1294 0.0000
vt -5.1292 0.1294 0.0000
vt -5.0748 0.0000 0.0000
vt -4.9252 0.0000 0.0000
vt -4.8708 0.1294 0.0000
# 14 texture coords

o plant_smallLeaf
g plant_smallLeaf
usemtl Material__87
s off
f 1/1/1 2/2/2 3/3/3 
f 4/4/4 5/5/5 6/6/6 
f 7/7/7 8/8/8 9/9/9 
f 10/10/10 9/9/9 8/8/8 
f 11/11/11 12/12/12 13/13/13 
f 13/13/13 14/14/14 11/11/11 
f 15/3/15 16/2/4 17/1/16 
f 15/6/3 17/5/1 16/4/2 
f 18/9/13 16/8/11 19/7/12 
f 16/8/11 18/9/13 15/10/14 
f 18/13/9 19/12/7 16/11/8 
f 16/11/8 15/14/10 18/13/9 
s 1
f 2/2/2 1/1/1 17/1/16 16/2/4 
s 2
f 3/3/3 2/2/2 16/2/4 15/3/15 
s 4
f 1/1/1 3/3/3 15/3/15 17/1/16 
s 1
f 5/5/5 4/4/4 16/4/2 17/5/1 
s 2
f 6/6/6 5/5/5 17/5/1 15/6/3 
s 4
f 4/4/4 6/6/6 15/6/3 16/4/2 
s 1
f 8/8/8 7/7/7 19/7/12 16/8/11 
s 2
f 7/7/7 9/9/9 18/9/13 19/7/12 
s 1
f 9/9/9 10/10/10 15/10/14 18/9/13 
s 2
f 10/10/10 8/8/8 16/8/11 15/10/14 
s 1
f 12/12/12 11/11/11 16/11/8 19/12/7 
s 2
f 13/13/13 12/12/12 19/12/7 18/13/9 
s 1
f 14/14/14 13/13/13 18/13/9 15/14/10 
s 2
f 11/11/11 14/14/14 15/14/10 16/11/8 
# 14 polygons - 12 triangles

#
# object plant_largeLeaf
#

v  -0.6220 1.1428 2.9533
v  -0.0866 0.4253 2.1509
v  -1.6656 1.1428 1.7096
v  -0.7824 0.4253 1.3217
v  -0.1636 0.2957 2.2154
v  -0.6989 1.0132 3.0179
v  -1.7425 1.0132 1.7741
v  -0.8593 0.2957 1.3863
v  -0.6861 1.1529 3.0071
v  -1.7297 1.1529 1.7634
v  -1.9055 0.7456 2.9706
v  -1.6784 1.0032 1.7203
v  -0.6348 1.0032 2.9641
v  -1.8542 0.5959 2.9276
v  -0.1487 -0.9303 1.8497
v  -0.4966 -0.9303 1.4351
v  -0.0625 0.3677 2.1307
v  -0.7583 0.3677 1.3015
v  -0.6217 -0.9448 1.5401
v  -0.2738 -0.9448 1.9547
v  -0.1877 0.3533 2.2356
v  -0.8834 0.3533 1.4065
v  -1.7041 1.0780 1.7418
v  -0.1251 0.3605 2.1832
v  -0.6604 1.0780 2.9856
v  -0.8209 0.3605 1.3540
v  -1.8799 0.6707 2.9491
v  -0.5592 -0.9375 1.4876
v  -0.2113 -0.9375 1.9022
# 29 vertices

vn 0.3699 0.7619 0.5317
vn 0.9825 0.0795 -0.1685
vn -0.4594 0.7619 -0.4566
vn 0.3365 0.0795 -0.9383
vn 0.4286 -0.8535 0.2963
vn -0.1617 -0.1335 0.9778
vn -0.9910 -0.1335 -0.0106
vn -0.2174 -0.8535 -0.4735
vn 0.5639 0.6482 0.5117
vn -0.4060 0.6482 -0.6442
vn -0.7533 0.1817 0.6321
vn -0.0622 -0.3553 -0.9327
vn 0.9077 -0.3553 0.2232
vn -0.3984 -0.8541 0.3343
vn 0.8195 -0.5727 -0.0217
vn 0.1638 -0.5727 -0.8032
vn 0.8085 0.5676 0.1554
vn -0.0126 0.5677 -0.8232
vn -0.7350 -0.6762 -0.0492
vn -0.0793 -0.6763 0.7324
vn -0.0573 0.4678 0.8820
vn -0.8785 0.4678 -0.0968
# 22 vertex normals

vt 4.7713 8.1650 0.0000
vt 4.8142 8.0182 0.0000
vt 5.0287 8.1650 0.0000
vt 4.9858 8.0182 0.0000
vt 4.8142 -8.0182 0.0000
vt 4.7713 -8.1650 0.0000
vt 5.0287 -8.1650 0.0000
vt 4.9858 -8.0182 0.0000
vt 4.9000 8.3094 0.0000
vt 4.9000 -8.3094 0.0000
vt 4.8571 -0.0000 0.0000
vt 4.9429 0.0000 0.0000
vt 4.8142 0.2058 0.0000
vt 4.9858 0.2058 0.0000
vt -4.9429 0.0000 0.0000
vt -4.8571 -0.0000 0.0000
vt -4.8142 0.2058 0.0000
vt -4.9858 0.2058 0.0000
# 18 texture coords

o plant_largeLeaf
g plant_largeLeaf
usemtl Material__87
s off
f 20/15/17 21/16/18 22/17/19 
f 23/18/20 22/17/19 21/16/18 
f 24/19/21 25/20/22 26/21/23 
f 26/21/23 27/22/24 24/19/21 
f 28/15/25 29/17/26 30/23/27 
f 31/21/28 32/20/29 33/24/30 
f 34/25/31 35/26/32 36/27/33 
f 37/28/34 36/27/33 35/26/32 
f 38/29/35 39/30/36 40/31/37 
f 40/31/37 41/32/38 38/29/35 
f 42/17/23 43/16/21 44/15/22 
f 43/16/21 42/17/23 45/18/24 
f 42/21/19 44/20/17 43/19/18 
f 43/19/18 45/22/20 42/21/19 
f 46/23/30 42/17/28 44/15/29 
f 46/24/27 44/20/25 42/21/26 
f 43/27/37 47/26/35 48/25/36 
f 47/26/35 43/27/37 45/28/38 
f 43/31/33 48/30/31 47/29/32 
f 47/29/32 45/32/34 43/31/33 
s 1
f 21/16/18 20/15/17 44/15/22 43/16/21 
s 2
f 20/15/17 22/17/19 42/17/23 44/15/22 
s 1
f 22/17/19 23/18/20 45/18/24 42/17/23 
s 2
f 23/18/20 21/16/18 43/16/21 45/18/24 
s 1
f 25/20/22 24/19/21 43/19/18 44/20/17 
s 2
f 26/21/23 25/20/22 44/20/17 42/21/19 
s 1
f 27/22/24 26/21/23 42/21/19 45/22/20 
s 2
f 24/19/21 27/22/24 45/22/20 43/19/18 
s 1
f 29/17/26 28/15/25 44/15/29 42/17/28 
s 2
f 30/23/27 29/17/26 42/17/28 46/23/30 
s 4
f 28/15/25 30/23/27 46/23/30 44/15/29 
s 1
f 32/20/29 31/21/28 42/21/26 44/20/25 
s 2
f 33/24/30 32/20/29 44/20/25 46/24/27 
s 4
f 31/21/28 33/24/30 46/24/27 42/21/26 
s 1
f 35/26/32 34/25/31 48/25/36 47/26/35 
s 2
f 34/25/31 36/27/33 43/27/37 48/25/36 
s 1
f 36/27/33 37/28/34 45/28/38 43/27/37 
s 2
f 37/28/34 35/26/32 47/26/35 45/28/38 
s 1
f 39/30/36 38/29/35 47/29/32 48/30/31 
s 2
f 40/31/37 39/30/36 48/30/31 43/31/33 
s 1
f 41/32/38 40/31/37 43/31/33 45/32/34 
s 2
f 38/29/35 41/32/38 45/32/34 47/29/32 
# 22 polygons - 20 triangles

#
# object plant_large
#

v  2.1639 0.8156 -0.2076
v  1.1203 0.8156 -1.4514
v  1.1626 0.3622 0.2793
v  0.4669 0.3622 -0.5498
v  1.1689 0.6645 -1.4922
v  2.2126 0.6645 -0.2484
v  1.2112 0.2110 0.2385
v  0.5155 0.2110 -0.5906
v  -0.7934 0.3622 0.6242
v  -0.4232 0.3622 -0.3929
v  -1.9009 0.8156 0.5091
v  -1.3456 0.8156 -1.0166
v  -0.4829 0.2110 -0.4146
v  -0.8531 0.2110 0.6025
v  -1.9605 0.6645 0.4874
v  -1.4052 0.6645 -1.0383
v  1.3075 0.8156 2.1453
v  0.8535 0.3622 1.1286
v  -0.2914 0.8156 2.4272
v  -0.2125 0.3622 1.3166
v  0.8645 0.2110 1.1912
v  1.3186 0.6645 2.2078
v  -0.2804 0.6645 2.4898
v  -0.2014 0.2110 1.3791
v  0.6119 -0.9094 0.3882
v  1.1279 0.3147 0.3084
v  0.2640 -0.9094 -0.0263
v  0.4322 0.3147 -0.5207
v  1.2459 0.2585 0.2094
v  0.7299 -0.9656 0.2892
v  0.3820 -0.9656 -0.1254
v  0.5502 0.2585 -0.6197
v  0.8456 0.3147 1.0840
v  0.5016 -0.9094 0.6912
v  -0.2203 0.3147 1.2720
v  -0.0314 -0.9094 0.7852
v  0.5283 -0.9656 0.8429
v  0.8724 0.2585 1.2357
v  -0.1936 0.2585 1.4237
v  -0.0046 -0.9656 0.9369
v  2.2991 0.1746 -1.3808
v  1.1842 0.8037 -1.5050
v  2.2279 0.8037 -0.2613
v  1.1050 0.6764 -1.4385
v  2.2199 0.0473 -1.3143
v  2.1486 0.6764 -0.1948
v  -0.3807 0.3147 -0.3774
v  -0.7509 0.3147 0.6397
v  -0.0535 -0.9094 0.0296
v  -0.2386 -0.9094 0.5382
v  -0.8956 0.2585 0.5870
v  -0.5254 0.2585 -0.4301
v  -0.1983 -0.9656 -0.0230
v  -0.3834 -0.9656 0.4855
v  1.3220 0.8037 2.2275
v  -0.2769 0.8037 2.5094
v  0.6570 0.1746 3.1309
v  -0.2949 0.6764 2.4076
v  1.3041 0.6764 2.1256
v  0.6390 0.0473 3.0291
v  -1.4240 0.8037 -1.0451
v  -2.4292 0.1746 -0.5471
v  -1.9793 0.8037 0.4806
v  -2.3320 0.0473 -0.5117
v  -1.3268 0.6764 -1.0097
v  -1.8821 0.6764 0.5160
v  1.1869 0.2866 0.2589
v  1.1446 0.7400 -1.4718
v  2.1882 0.7400 -0.2280
v  0.4912 0.2866 -0.5702
v  -1.9307 0.7400 0.4983
v  -0.4530 0.2866 -0.4037
v  -0.8232 0.2866 0.6134
v  -1.3754 0.7400 -1.0274
v  -0.2859 0.7400 2.4585
v  0.8590 0.2866 1.1599
v  1.3130 0.7400 2.1766
v  -0.2070 0.2866 1.3479
v  0.3230 -0.9375 -0.0759
v  0.6709 -0.9375 0.3387
v  0.5150 -0.9375 0.7671
v  -0.0180 -0.9375 0.8610
v  2.2595 0.1109 -1.3476
v  -0.1259 -0.9375 0.0033
v  -0.3110 -0.9375 0.5119
v  0.6480 0.1110 3.0800
v  -2.3806 0.1110 -0.5294
# 87 vertices

vn 0.6090 0.7208 0.3310
vn -0.2202 0.7208 -0.6573
vn -0.2982 0.2997 0.9062
vn -0.9443 0.2997 0.1363
vn 0.1157 -0.3236 -0.9391
vn 0.9449 -0.3236 0.0492
vn 0.0518 -0.7888 0.6124
vn -0.5941 -0.7888 -0.1574
vn 0.5903 0.2997 0.7495
vn 0.9340 0.2996 -0.1948
vn -0.4591 0.7208 0.5192
vn -0.0179 0.7208 -0.6929
vn 0.5045 -0.7888 -0.3511
vn 0.1608 -0.7888 0.5933
vn -0.8711 -0.3236 0.3694
vn -0.4299 -0.3236 -0.8429
vn 0.6793 0.7208 0.1380
vn 0.3540 0.2996 -0.8859
vn -0.5911 0.7208 0.3620
vn -0.6356 0.2996 -0.7115
vn 0.4334 -0.7888 -0.4359
vn 0.7554 -0.3236 0.5697
vn -0.5150 -0.3236 0.7937
vn -0.5563 -0.7888 -0.2613
vn -0.2605 -0.3871 0.8845
vn 0.1388 0.6827 0.7174
vn -0.9162 -0.3872 0.1030
vn -0.6824 0.6827 -0.2612
vn 0.9553 0.2938 0.0322
vn 0.5871 -0.7907 0.1733
vn -0.0687 -0.7907 -0.6083
vn 0.1342 0.2938 -0.9464
vn 0.5674 0.6827 -0.4604
vn 0.3690 -0.3871 -0.8450
vn -0.6907 0.6827 -0.2385
vn -0.6357 -0.3871 -0.6679
vn 0.5611 -0.7908 0.2446
vn 0.7525 0.2939 0.5894
vn -0.5056 0.2938 0.8112
vn -0.4436 -0.7907 0.4219
vn 0.7636 -0.0790 -0.6409
vn -0.4327 0.6528 -0.6218
vn 0.5372 0.6528 0.5341
vn -0.9638 -0.2004 -0.1761
vn 0.2155 -0.9596 -0.1808
vn 0.0059 -0.2003 0.9797
vn 0.5520 0.6826 -0.4789
vn 0.1150 0.6826 0.7217
vn 0.8962 -0.3872 -0.2167
vn 0.5474 -0.3871 0.7420
vn -0.8867 0.2938 0.3570
vn -0.4498 0.2939 -0.8434
vn -0.1435 -0.7908 -0.5951
vn -0.4924 -0.7908 0.3636
vn 0.7549 0.6527 -0.0637
vn -0.7312 0.6528 0.1981
vn 0.1733 -0.0790 0.9817
vn -0.8515 -0.2005 -0.4844
vn 0.6344 -0.2004 -0.7466
vn 0.0487 -0.9596 0.2771
vn 0.1939 0.6528 -0.7323
vn -0.9368 -0.0790 -0.3410
vn -0.3221 0.6528 0.6856
vn -0.2645 -0.9596 -0.0961
vn 0.8455 -0.2002 -0.4951
vn 0.3290 -0.2006 0.9228
vn -0.2982 0.2997 0.9063
vn -0.4591 0.7208 0.5193
vn 0.5902 0.2996 0.7495
vn 0.7555 -0.3237 0.5696
vn -0.5912 0.7208 0.3619
vn 0.5871 -0.7908 0.1733
vn -0.9163 -0.3870 0.1029
vn -0.2605 -0.3870 0.8845
vn 0.7525 0.2938 0.5894
vn 0.5676 0.6825 -0.4604
vn -0.6357 -0.3872 -0.6678
vn 0.0061 -0.2004 0.9797
vn 0.7637 -0.0790 -0.6408
vn -0.1435 -0.7908 -0.5950
vn -0.4498 0.2938 -0.8434
vn -0.4925 -0.7907 0.3637
vn 0.8962 -0.3871 -0.2166
vn 0.5519 0.6827 -0.4789
vn 0.1150 0.6827 0.7216
vn -0.8515 -0.2005 -0.4846
vn 0.1732 -0.0789 0.9817
vn 0.7548 0.6528 -0.0638
vn -0.7311 0.6529 0.1980
vn 0.3293 -0.2004 0.9227
vn -0.2643 -0.9596 -0.0960
vn 0.8454 -0.2004 -0.4951
vn -0.9367 -0.0791 -0.3411
# 93 vertex normals

vt 4.8713 7.4914 0.0000
vt 5.1287 7.4914 0.0000
vt 4.9142 7.6627 0.0000
vt 5.0858 7.6627 0.0000
vt 5.1287 -7.4914 0.0000
vt 4.8713 -7.4914 0.0000
vt 4.9142 -7.6627 0.0000
vt 5.0858 -7.6627 0.0000
vt 5.0760 7.9430 0.0000
vt 5.1618 7.7943 0.0000
vt 5.2029 8.0658 0.0000
vt 5.3316 7.8428 0.0000
vt 5.1618 -7.7943 0.0000
vt 5.0760 -7.9430 0.0000
vt 5.2029 -8.0658 0.0000
vt 5.3316 -7.8428 0.0000
vt 4.6684 7.8428 0.0000
vt 4.8382 7.7943 0.0000
vt 4.7971 8.0658 0.0000
vt 4.9240 7.9430 0.0000
vt 4.8382 -7.7943 0.0000
vt 4.6684 -7.8428 0.0000
vt 4.7971 -8.0658 0.0000
vt 4.9240 -7.9430 0.0000
vt -4.9571 0.0000 0.0000
vt -4.9142 0.1941 0.0000
vt -5.0429 0.0000 0.0000
vt -5.0858 0.1941 0.0000
vt 4.9142 0.1941 0.0000
vt 4.9571 0.0000 0.0000
vt 5.0429 0.0000 0.0000
vt 5.0858 0.1941 0.0000
vt 7.7943 0.1941 0.0000
vt 7.7961 0.0000 0.0000
vt 7.9430 0.1941 0.0000
vt 7.8704 0.0000 0.0000
vt -7.7961 0.0000 0.0000
vt -7.7943 0.1941 0.0000
vt -7.9430 0.1941 0.0000
vt -7.8704 0.0000 0.0000
vt 5.0000 7.3687 0.0000
vt 5.0000 -7.3687 0.0000
vt 4.6265 8.0157 0.0000
vt 4.6265 -8.0157 0.0000
vt 5.3735 8.0157 0.0000
vt 5.3735 -8.0157 0.0000
# 46 texture coords

o plant_large
g plant_large
usemtl Material__87
s off
f 49/33/39 50/34/40 51/35/41 
f 52/36/42 51/35/41 50/34/40 
f 53/37/43 54/38/44 55/39/45 
f 55/39/45 56/40/46 53/37/43 
f 57/41/47 58/42/48 59/43/49 
f 60/44/50 59/43/49 58/42/48 
f 61/45/51 62/46/52 63/47/53 
f 63/47/53 64/48/54 61/45/51 
f 65/49/55 66/50/56 67/51/57 
f 68/52/58 67/51/57 66/50/56 
f 69/53/59 70/54/60 71/55/61 
f 71/55/61 72/56/62 69/53/59 
f 73/57/63 74/58/64 75/59/65 
f 76/60/66 75/59/65 74/58/64 
f 77/61/67 78/62/68 79/63/69 
f 79/63/69 80/64/70 77/61/67 
f 81/65/71 82/66/72 83/67/73 
f 84/68/74 83/67/73 82/66/72 
f 85/69/75 86/70/76 87/71/77 
f 87/71/77 88/72/78 85/69/75 
f 89/73/79 90/34/80 91/33/81 
f 92/37/82 93/74/83 94/38/84 
f 95/70/85 96/71/86 97/69/87 
f 98/72/88 97/69/87 96/71/86 
f 99/67/89 100/65/90 101/66/91 
f 101/66/91 102/68/92 99/67/89 
f 103/49/93 104/51/94 105/75/95 
f 106/55/96 107/54/97 108/76/98 
f 109/44/99 110/77/100 111/43/101 
f 112/78/102 113/48/103 114/47/104 
f 115/35/45 116/34/43 117/33/44 
f 116/34/43 115/35/45 118/36/46 
f 115/39/105 117/38/39 116/37/40 
f 116/37/40 118/40/42 115/39/105 
f 119/43/53 120/42/51 121/41/52 
f 120/42/51 119/43/53 122/44/54 
f 119/47/106 121/46/107 120/45/48 
f 120/45/48 122/48/50 119/47/106 
f 123/51/61 124/50/59 125/49/108 
f 124/50/59 123/51/61 126/52/62 
f 123/55/109 125/54/55 124/53/56 
f 124/53/56 126/56/58 123/55/109 
f 127/59/69 115/58/67 128/57/110 
f 115/58/67 127/59/69 118/60/70 
f 127/63/111 128/62/112 115/61/64 
f 115/61/64 118/64/66 127/63/111 
f 126/67/77 129/66/75 124/65/113 
f 129/66/75 126/67/77 130/68/78 
f 126/71/73 124/70/114 129/69/72 
f 129/69/72 130/72/115 126/71/73 
f 117/33/116 116/34/82 131/73/83 
f 117/38/81 131/74/117 116/37/80 
f 132/69/118 121/71/89 120/70/119 
f 121/71/89 132/69/118 133/72/120 
f 132/66/121 120/65/122 121/67/123 
f 121/67/123 133/68/88 132/66/121 
f 134/75/98 123/51/124 125/49/97 
f 134/76/125 125/54/126 123/55/127 
f 119/43/128 135/77/129 122/44/130 
f 119/47/101 122/48/99 135/78/131 
s 1
f 50/34/40 49/33/39 117/33/44 116/34/43 
s 2
f 49/33/39 51/35/41 115/35/45 117/33/44 
s 1
f 51/35/41 52/36/42 118/36/46 115/35/45 
s 2
f 52/36/42 50/34/40 116/34/43 118/36/46 
s 1
f 54/38/44 53/37/43 116/37/40 117/38/39 
s 2
f 55/39/45 54/38/44 117/38/39 115/39/105 
s 1
f 56/40/46 55/39/45 115/39/105 118/40/42 
s 2
f 53/37/43 56/40/46 118/40/42 116/37/40 
s 1
f 58/42/48 57/41/47 121/41/52 120/42/51 
s 2
f 57/41/47 59/43/49 119/43/53 121/41/52 
s 1
f 59/43/49 60/44/50 122/44/54 119/43/53 
s 2
f 60/44/50 58/42/48 120/42/51 122/44/54 
s 1
f 62/46/52 61/45/51 120/45/48 121/46/107 
s 2
f 63/47/53 62/46/52 121/46/107 119/47/106 
s 1
f 64/48/54 63/47/53 119/47/106 122/48/50 
s 2
f 61/45/51 64/48/54 122/48/50 120/45/48 
s 1
f 66/50/56 65/49/55 125/49/108 124/50/59 
s 2
f 65/49/55 67/51/57 123/51/61 125/49/108 
s 1
f 67/51/57 68/52/58 126/52/62 123/51/61 
s 2
f 68/52/58 66/50/56 124/50/59 126/52/62 
s 1
f 70/54/60 69/53/59 124/53/56 125/54/55 
s 2
f 71/55/61 70/54/60 125/54/55 123/55/109 
s 1
f 72/56/62 71/55/61 123/55/109 126/56/58 
s 2
f 69/53/59 72/56/62 126/56/58 124/53/56 
s 1
f 74/58/64 73/57/63 128/57/110 115/58/67 
s 2
f 73/57/63 75/59/65 127/59/69 128/57/110 
s 1
f 75/59/65 76/60/66 118/60/70 127/59/69 
s 2
f 76/60/66 74/58/64 115/58/67 118/60/70 
s 1
f 78/62/68 77/61/67 115/61/64 128/62/112 
s 2
f 79/63/69 78/62/68 128/62/112 127/63/111 
s 1
f 80/64/70 79/63/69 127/63/111 118/64/66 
s 2
f 77/61/67 80/64/70 118/64/66 115/61/64 
s 1
f 82/66/72 81/65/71 124/65/113 129/66/75 
s 2
f 81/65/71 83/67/73 126/67/77 124/65/113 
s 1
f 83/67/73 84/68/74 130/68/78 126/67/77 
s 2
f 84/68/74 82/66/72 129/66/75 130/68/78 
s 1
f 86/70/76 85/69/75 129/69/72 124/70/114 
s 2
f 87/71/77 86/70/76 124/70/114 126/71/73 
s 1
f 88/72/78 87/71/77 126/71/73 130/72/115 
s 2
f 85/69/75 88/72/78 130/72/115 129/69/72 
s 1
f 90/34/80 89/73/79 131/73/83 116/34/82 
s 2
f 91/33/81 90/34/80 116/34/82 117/33/116 
s 4
f 89/73/79 91/33/81 117/33/116 131/73/83 
s 1
f 93/74/83 92/37/82 116/37/80 131/74/117 
s 2
f 94/38/84 93/74/83 131/74/117 117/38/81 
s 4
f 92/37/82 94/38/84 117/38/81 116/37/80 
s 1
f 96/71/86 95/70/85 120/70/119 121/71/89 
s 2
f 95/70/85 97/69/87 132/69/118 120/70/119 
s 1
f 97/69/87 98/72/88 133/72/120 132/69/118 
s 2
f 98/72/88 96/71/86 121/71/89 133/72/120 
s 1
f 100/65/90 99/67/89 121/67/123 120/65/122 
s 2
f 101/66/91 100/65/90 120/65/122 132/66/121 
s 1
f 102/68/92 101/66/91 132/66/121 133/68/88 
s 2
f 99/67/89 102/68/92 133/68/88 121/67/123 
s 1
f 104/51/94 103/49/93 125/49/97 123/51/124 
s 2
f 105/75/95 104/51/94 123/51/124 134/75/98 
s 4
f 103/49/93 105/75/95 134/75/98 125/49/97 
s 1
f 107/54/97 106/55/96 123/55/127 125/54/126 
s 2
f 108/76/98 107/54/97 125/54/126 134/76/125 
s 4
f 106/55/96 108/76/98 134/76/125 123/55/127 
s 1
f 110/77/100 109/44/99 122/44/130 135/77/129 
s 2
f 111/43/101 110/77/100 135/77/129 119/43/128 
s 4
f 109/44/99 111/43/101 119/43/128 122/44/130 
s 1
f 113/48/103 112/78/102 135/78/131 122/48/99 
s 2
f 114/47/104 113/48/103 122/48/99 119/47/101 
s 4
f 112/78/102 114/47/104 119/47/101 135/78/131 
# 66 polygons - 60 triangles

#
# object plant_small
#

v  -0.6098 -0.0774 -2.9210
v  -1.1671 -0.0774 -1.3899
v  -0.2419 -0.8937 -2.4221
v  -0.5646 -0.8937 -1.5357
v  -1.2973 -0.1650 -1.4373
v  -0.7400 -0.1650 -2.9684
v  -0.3722 -0.9814 -2.4695
v  -0.6948 -0.9814 -1.5831
v  -1.2632 -0.1962 -1.4249
v  -1.9335 0.2488 -2.5358
v  -0.7060 -0.1962 -2.9560
v  -1.8714 0.3988 -2.5132
v  -1.2011 -0.0462 -1.4023
v  -0.6438 -0.0462 -2.9334
v  1.1915 -0.1962 -1.8577
v  0.1442 -0.1962 -3.1059
v  1.4414 0.2488 -3.1309
v  0.0935 -0.0462 -3.0634
v  1.1408 -0.0462 -1.8152
v  1.3907 0.3988 -3.0884
v  0.4971 -0.8937 -1.7229
v  1.1131 -0.0774 -1.7919
v  -0.1093 -0.8937 -2.4455
v  0.0657 -0.0774 -3.0401
v  1.2193 -0.1650 -1.8810
v  0.6033 -0.9814 -1.8119
v  -0.0031 -0.9814 -2.5346
v  0.1719 -0.1650 -3.1292
v  0.8785 -0.0774 -1.1474
v  0.4510 -0.8937 -1.5962
v  -0.7261 -0.0774 -0.8644
v  -0.4780 -0.8937 -1.4324
v  0.4751 -0.9814 -1.4598
v  0.9026 -0.1650 -1.0109
v  -0.7021 -0.1650 -0.7280
v  -0.4539 -0.9814 -1.2960
v  0.2693 0.2488 0.0893
v  -0.7084 -0.1962 -0.7636
v  0.8963 -0.1962 -1.0466
v  -0.7198 -0.0462 -0.8288
v  0.2578 0.3988 0.0242
v  0.8848 -0.0462 -1.1117
v  -0.3071 -0.9375 -2.4458
v  -1.2322 -0.1212 -1.4136
v  -0.6749 -0.1212 -2.9447
v  -0.6297 -0.9375 -1.5594
v  -1.9024 0.3238 -2.5245
v  1.4160 0.3238 -3.1097
v  0.1188 -0.1212 -3.0847
v  1.1662 -0.1212 -1.8365
v  -0.0562 -0.9375 -2.4900
v  0.5502 -0.9375 -1.7674
v  -0.7141 -0.1212 -0.7962
v  0.4630 -0.9375 -1.5280
v  0.8905 -0.1212 -1.0791
v  -0.4659 -0.9375 -1.3642
v  0.2636 0.3238 0.0568
# 57 vertices

vn 0.4374 0.7035 -0.5601
vn -0.0250 0.7035 0.7103
vn 0.9617 -0.2343 -0.1422
vn 0.6453 -0.2343 0.7271
vn -0.9169 0.1032 0.3856
vn -0.4545 0.1032 -0.8848
vn 0.0127 -0.8730 -0.4876
vn -0.3037 -0.8730 0.3817
vn -0.1403 -0.6559 0.7417
vn -0.9240 -0.1822 -0.3363
vn 0.3693 -0.6559 -0.6583
vn -0.4971 0.8486 -0.1809
vn 0.2774 0.3527 0.8937
vn 0.7869 0.3527 -0.5063
vn 0.3853 -0.6560 0.6490
vn -0.5722 -0.6559 -0.4923
vn 0.7533 -0.1822 -0.6319
vn -0.9126 0.3527 -0.2068
vn 0.0450 0.3527 0.9347
vn 0.4052 0.8486 -0.3400
vn -0.3578 -0.2343 0.9039
vn 0.2663 0.7034 0.6590
vn -0.9523 -0.2343 0.1953
vn -0.6027 0.7034 -0.3767
vn 0.9935 0.1031 0.0489
vn 0.4159 -0.8730 0.2549
vn -0.1787 -0.8730 -0.4538
vn 0.1244 0.1031 -0.9869
vn 0.6276 0.7034 -0.3336
vn 0.3070 -0.2343 -0.9224
vn -0.7038 0.7035 -0.0987
vn -0.6040 -0.2343 -0.7617
vn 0.4824 -0.8730 0.0721
vn 0.7923 0.1033 0.6013
vn -0.5390 0.1032 0.8360
vn -0.4286 -0.8730 0.2328
vn 0.1707 -0.1822 0.9683
vn -0.7548 -0.6559 0.0094
vn 0.7126 -0.6559 -0.2492
vn -0.8320 0.3527 -0.4283
vn 0.0919 0.8486 0.5210
vn 0.6353 0.3527 -0.6870
vn 0.4051 0.8486 -0.3401
vn -0.9126 0.3527 -0.2067
vn 0.0452 0.3527 0.9346
vn 0.7532 -0.1822 -0.6320
vn 0.7924 0.1034 0.6012
vn -0.4285 -0.8730 0.2328
vn 0.6276 0.7036 -0.3334
vn -0.6040 -0.2343 -0.7618
vn 0.6352 0.3526 -0.6872
vn 0.7125 -0.6559 -0.2493
# 52 vertex normals

vt -7.5623 0.1294 0.0000
vt -7.7861 0.1294 0.0000
vt -7.5685 0.0000 0.0000
vt -7.6980 0.0000 0.0000
vt 7.7861 0.1294 0.0000
vt 7.5623 0.1294 0.0000
vt 7.5685 0.0000 0.0000
vt 7.6980 0.0000 0.0000
vt 5.3639 -7.7861 0.0000
vt 5.5671 -7.7542 0.0000
vt 5.4931 -7.5623 0.0000
vt 5.5671 7.7542 0.0000
vt 5.3639 7.7861 0.0000
vt 5.4931 7.5623 0.0000
vt 5.1708 -7.4516 0.0000
vt 5.4292 -7.4516 0.0000
vt 5.3000 -7.2915 0.0000
vt 5.4292 7.4516 0.0000
vt 5.1708 7.4516 0.0000
vt 5.3000 7.2915 0.0000
vt -5.2252 0.0000 0.0000
vt -5.1708 0.1294 0.0000
vt -5.3748 0.0000 0.0000
vt -5.4292 0.1294 0.0000
vt 5.1708 0.1294 0.0000
vt 5.2252 0.0000 0.0000
vt 5.3748 0.0000 0.0000
vt 5.4292 0.1294 0.0000
vt 5.0329 -7.7542 0.0000
vt 5.2361 -7.7861 0.0000
vt 5.1069 -7.5623 0.0000
vt 5.2361 7.7861 0.0000
vt 5.0329 7.7542 0.0000
vt 5.1069 7.5623 0.0000
# 34 texture coords

o plant_small
g plant_small
usemtl Material__87
s off
f 136/79/132 137/80/133 138/81/134 
f 139/82/135 138/81/134 137/80/133 
f 140/83/136 141/84/137 142/85/138 
f 142/85/138 143/86/139 140/83/136 
f 144/87/140 145/88/141 146/89/142 
f 147/90/143 148/91/144 149/92/145 
f 150/93/146 151/94/147 152/95/148 
f 153/96/149 154/97/150 155/98/151 
f 156/99/152 157/100/153 158/101/154 
f 159/102/155 158/101/154 157/100/153 
f 160/103/156 161/104/157 162/105/158 
f 162/105/158 163/106/159 160/103/156 
f 164/84/160 165/85/161 166/83/162 
f 167/86/163 166/83/162 165/85/161 
f 168/81/164 169/79/165 170/80/166 
f 170/80/166 171/82/167 168/81/164 
f 172/107/168 173/108/169 174/109/170 
f 175/110/171 176/111/172 177/112/173 
f 178/81/138 179/80/136 180/79/137 
f 179/80/136 178/81/138 181/82/139 
f 178/85/134 180/84/132 179/83/133 
f 179/83/133 181/86/135 178/85/134 
f 180/89/145 182/88/143 179/87/144 
f 180/92/142 179/91/140 182/90/141 
f 183/95/174 184/94/175 185/93/176 
f 183/98/177 185/97/146 184/96/147 
f 186/101/158 185/100/156 187/99/157 
f 185/100/156 186/101/158 184/102/159 
f 186/105/154 187/104/152 185/103/153 
f 185/103/153 184/106/155 186/105/154 
f 188/83/166 189/85/164 190/84/178 
f 189/85/164 188/83/166 191/86/179 
f 188/80/162 190/79/180 189/81/161 
f 189/81/161 191/82/181 188/80/162 
f 190/109/182 188/108/171 192/107/172 
f 190/112/183 192/111/168 188/110/169 
s 1
f 137/80/133 136/79/132 180/79/137 179/80/136 
s 2
f 136/79/132 138/81/134 178/81/138 180/79/137 
s 1
f 138/81/134 139/82/135 181/82/139 178/81/138 
s 2
f 139/82/135 137/80/133 179/80/136 181/82/139 
s 1
f 141/84/137 140/83/136 179/83/133 180/84/132 
s 2
f 142/85/138 141/84/137 180/84/132 178/85/134 
s 1
f 143/86/139 142/85/138 178/85/134 181/86/135 
s 2
f 140/83/136 143/86/139 181/86/135 179/83/133 
s 1
f 145/88/141 144/87/140 179/87/144 182/88/143 
s 2
f 146/89/142 145/88/141 182/88/143 180/89/145 
s 4
f 144/87/140 146/89/142 180/89/145 179/87/144 
s 1
f 148/91/144 147/90/143 182/90/141 179/91/140 
s 2
f 149/92/145 148/91/144 179/91/140 180/92/142 
s 4
f 147/90/143 149/92/145 180/92/142 182/90/141 
s 1
f 151/94/147 150/93/146 185/93/176 184/94/175 
s 2
f 152/95/148 151/94/147 184/94/175 183/95/174 
s 4
f 150/93/146 152/95/148 183/95/174 185/93/176 
s 1
f 154/97/150 153/96/149 184/96/147 185/97/146 
s 2
f 155/98/151 154/97/150 185/97/146 183/98/177 
s 4
f 153/96/149 155/98/151 183/98/177 184/96/147 
s 1
f 157/100/153 156/99/152 187/99/157 185/100/156 
s 2
f 156/99/152 158/101/154 186/101/158 187/99/157 
s 1
f 158/101/154 159/102/155 184/102/159 186/101/158 
s 2
f 159/102/155 157/100/153 185/100/156 184/102/159 
s 1
f 161/104/157 160/103/156 185/103/153 187/104/152 
s 2
f 162/105/158 161/104/157 187/104/152 186/105/154 
s 1
f 163/106/159 162/105/158 186/105/154 184/106/155 
s 2
f 160/103/156 163/106/159 184/106/155 185/103/153 
s 1
f 165/85/161 164/84/160 190/84/178 189/85/164 
s 2
f 164/84/160 166/83/162 188/83/166 190/84/178 
s 1
f 166/83/162 167/86/163 191/86/179 188/83/166 
s 2
f 167/86/163 165/85/161 189/85/164 191/86/179 
s 1
f 169/79/165 168/81/164 189/81/161 190/79/180 
s 2
f 170/80/166 169/79/165 190/79/180 188/80/162 
s 1
f 171/82/167 170/80/166 188/80/162 191/82/181 
s 2
f 168/81/164 171/82/167 191/82/181 189/81/161 
s 1
f 173/108/169 172/107/168 192/107/172 188/108/171 
s 2
f 174/109/170 173/108/169 188/108/171 190/109/182 
s 4
f 172/107/168 174/109/170 190/109/182 192/107/172 
s 1
f 176/111/172 175/110/171 188/110/169 192/111/168 
s 2
f 177/112/173 176/111/172 192/111/168 190/112/183 
s 4
f 175/110/171 177/112/173 190/112/183 188/110/169 
# 42 polygons - 36 triangles

