# 3ds Max Wavefront OBJ Exporter v0.97b - (c)2007 guruware
# File Created: 16.09.2021 19:53:46

mtllib o`t.mtl

#
# object plant_large002
#

v  0.9139 1.9737 -2.1551
v  -0.9139 1.9737 -2.1551
v  0.6093 1.4632 -0.9392
v  -0.6093 1.4632 -0.9392
v  -0.9139 1.8035 -2.2266
v  0.9139 1.8035 -2.2266
v  0.6093 1.2930 -1.0107
v  -0.6093 1.2930 -1.0107
v  -0.5087 1.4632 0.9972
v  -1.1180 1.4632 -0.0580
v  -1.4094 1.9737 1.8690
v  -2.3233 1.9737 0.2861
v  -1.1799 1.2930 -0.0223
v  -0.5706 1.2930 1.0330
v  -1.4713 1.8035 1.9048
v  -2.3852 1.8035 0.3218
v  2.3233 1.9737 0.2861
v  1.1180 1.4632 -0.0580
v  1.4094 1.9737 1.8690
v  0.5087 1.4632 0.9972
v  1.1799 1.2930 -0.0223
v  2.3852 1.8035 0.3218
v  1.4713 1.8035 1.9048
v  0.5706 1.2930 1.0330
v  0.3046 0.0316 -0.3854
v  0.6093 1.4097 -0.8882
v  -0.3046 0.0316 -0.3854
v  -0.6093 1.4097 -0.8882
v  0.6093 1.3465 -1.0616
v  0.3046 -0.0316 -0.5589
v  -0.3046 -0.0316 -0.5589
v  -0.6093 1.3465 -1.0616
v  1.0739 1.4097 -0.0835
v  0.4861 0.0316 -0.0711
v  0.4646 1.4097 0.9718
v  0.1815 0.0316 0.4565
v  0.6363 -0.0316 0.0156
v  1.2240 1.3465 0.0032
v  0.6148 1.3465 1.0585
v  0.3317 -0.0316 0.5433
v  0.0000 1.2520 -3.1206
v  -0.9139 1.9602 -2.2491
v  0.9139 1.9602 -2.2491
v  -0.9139 1.8170 -2.1326
v  0.0000 1.1087 -3.0042
v  0.9139 1.8170 -2.1326
v  -1.0739 1.4097 -0.0835
v  -0.4646 1.4097 0.9718
v  -0.4861 0.0316 -0.0711
v  -0.1815 0.0316 0.4565
v  -0.6148 1.3465 1.0585
v  -1.2240 1.3465 0.0032
v  -0.6363 -0.0316 0.0156
v  -0.3317 -0.0316 0.5433
v  2.4047 1.9602 0.3331
v  1.4908 1.9602 1.9160
v  2.7026 1.2520 1.5603
v  1.3900 1.8170 1.8578
v  2.3039 1.8170 0.2749
v  2.6017 1.1087 1.5021
v  -2.4047 1.9602 0.3331
v  -2.7026 1.2520 1.5603
v  -1.4908 1.9602 1.9160
v  -2.6017 1.1087 1.5021
v  -2.3039 1.8170 0.2749
v  -1.3900 1.8170 1.8578
v  0.6093 1.3781 -0.9749
v  -0.9139 1.8886 -2.1908
v  0.9139 1.8886 -2.1908
v  -0.6093 1.3781 -0.9749
v  -1.4404 1.8886 1.8869
v  -1.1490 1.3781 -0.0402
v  -0.5397 1.3781 1.0151
v  -2.3543 1.8886 0.3040
v  1.4404 1.8886 1.8869
v  1.1490 1.3781 -0.0402
v  2.3543 1.8886 0.3040
v  0.5397 1.3781 1.0151
v  -0.3046 -0.0000 -0.4721
v  0.3046 0.0000 -0.4721
v  0.5612 0.0000 -0.0277
v  0.2566 0.0000 0.4999
v  0.0000 1.1804 -3.0624
v  -0.5612 -0.0000 -0.0277
v  -0.2566 -0.0000 0.4999
v  2.6522 1.1804 1.5312
v  -2.6522 1.1804 1.5312
# 87 vertices

vn 0.6450 0.7208 -0.2538
vn -0.6450 0.7208 -0.2538
vn 0.5025 0.2997 0.8110
vn -0.5026 0.2997 0.8109
vn -0.6450 -0.3236 -0.6923
vn 0.6450 -0.3236 -0.6923
vn 0.5024 -0.7888 0.3540
vn -0.5024 -0.7888 0.3540
vn 0.9536 0.2997 0.0296
vn 0.4511 0.2996 -0.8407
vn 0.1027 0.7208 0.6855
vn -0.5423 0.7208 -0.4317
vn 0.0554 -0.7888 -0.6122
vn 0.5578 -0.7888 0.2581
vn -0.2770 -0.3236 0.9047
vn -0.9220 -0.3236 -0.2125
vn 0.5424 0.7208 -0.4316
vn -0.4511 0.2996 -0.8407
vn -0.1027 0.7208 0.6855
vn -0.9536 0.2996 0.0295
vn -0.0554 -0.7888 -0.6122
vn 0.9220 -0.3236 -0.2125
vn 0.2770 -0.3236 0.9047
vn -0.5578 -0.7888 0.2582
vn 0.5101 -0.3871 0.7681
vn 0.6388 0.6827 0.3548
vn -0.5101 -0.3872 0.7681
vn -0.6388 0.6827 0.3548
vn 0.6388 0.2938 -0.7111
vn 0.5101 -0.7907 -0.3384
vn -0.5101 -0.7907 -0.3384
vn -0.6388 0.2938 -0.7111
vn 0.0121 0.6827 -0.7306
vn -0.4101 -0.3871 -0.8258
vn -0.6267 0.6827 0.3758
vn -0.9202 -0.3871 0.0576
vn 0.5481 -0.7908 -0.2726
vn 0.9352 0.2939 -0.1976
vn 0.2965 0.2938 0.9087
vn 0.0380 -0.7907 0.6110
vn -0.0001 -0.0790 -0.9969
vn -0.7544 0.6528 -0.0682
vn 0.7544 0.6528 -0.0682
vn -0.7544 -0.2004 0.6251
vn 0.0000 -0.9596 -0.2813
vn 0.7543 -0.2003 0.6252
vn -0.0120 0.6826 -0.7307
vn 0.6268 0.6826 0.3758
vn 0.4101 -0.3872 -0.8258
vn 0.9202 -0.3871 0.0576
vn -0.2965 0.2938 0.9087
vn -0.9352 0.2939 -0.1976
vn -0.5481 -0.7908 -0.2726
vn -0.0380 -0.7908 0.6109
vn 0.4364 0.6527 -0.6193
vn -0.3182 0.6528 0.6875
vn 0.8634 -0.0790 0.4982
vn -0.9184 -0.2005 0.3409
vn -0.1641 -0.2004 -0.9659
vn 0.2436 -0.9596 0.1408
vn -0.4363 0.6528 -0.6192
vn -0.8633 -0.0790 0.4984
vn 0.3181 0.6528 0.6875
vn -0.2436 -0.9596 0.1408
vn 0.1642 -0.2002 -0.9659
vn 0.9184 -0.2006 0.3411
vn 0.5026 0.2997 0.8109
vn 0.9536 0.2996 0.0296
vn 0.9220 -0.3237 -0.2126
vn -0.9536 0.2996 0.0296
vn 0.5101 -0.7908 -0.3383
vn -0.5101 -0.3870 0.7681
vn 0.5101 -0.3870 0.7681
vn 0.9352 0.2938 -0.1976
vn 0.0121 0.6825 -0.7307
vn -0.9202 -0.3872 0.0577
vn 0.7544 -0.2004 0.6251
vn 0.0000 -0.0790 -0.9969
vn -0.5481 -0.7908 -0.2725
vn -0.9352 0.2938 -0.1976
vn -0.0379 -0.7907 0.6110
vn 0.4101 -0.3871 -0.8258
vn -0.0121 0.6827 -0.7306
vn 0.6267 0.6827 0.3758
vn -0.9185 -0.2005 0.3408
vn 0.8634 -0.0789 0.4983
vn 0.4363 0.6528 -0.6192
vn -0.3182 0.6529 0.6873
vn 0.9185 -0.2004 0.3408
vn -0.2435 -0.9596 0.1408
vn 0.1641 -0.2004 -0.9659
vn -0.8634 -0.0791 0.4983
# 92 vertex normals

vt 4.8713 7.4914 0.0000
vt 5.1287 7.4914 0.0000
vt 4.9142 7.6627 0.0000
vt 5.0858 7.6627 0.0000
vt 5.1287 -7.4914 0.0000
vt 4.8713 -7.4914 0.0000
vt 4.9142 -7.6627 0.0000
vt 5.0858 -7.6627 0.0000
vt 5.0760 7.9430 0.0000
vt 5.1618 7.7943 0.0000
vt 5.2029 8.0658 0.0000
vt 5.3316 7.8428 0.0000
vt 5.1618 -7.7943 0.0000
vt 5.0760 -7.9430 0.0000
vt 5.2029 -8.0658 0.0000
vt 5.3316 -7.8428 0.0000
vt 4.6684 7.8428 0.0000
vt 4.8382 7.7943 0.0000
vt 4.7971 8.0658 0.0000
vt 4.9240 7.9430 0.0000
vt 4.8382 -7.7943 0.0000
vt 4.6684 -7.8428 0.0000
vt 4.7971 -8.0658 0.0000
vt 4.9240 -7.9430 0.0000
vt -4.9571 0.0000 0.0000
vt -4.9142 0.1941 0.0000
vt -5.0429 0.0000 0.0000
vt -5.0858 0.1941 0.0000
vt 4.9142 0.1941 0.0000
vt 4.9571 0.0000 0.0000
vt 5.0429 0.0000 0.0000
vt 5.0858 0.1941 0.0000
vt 7.7943 0.1941 0.0000
vt 7.7961 0.0000 0.0000
vt 7.9430 0.1941 0.0000
vt 7.8704 0.0000 0.0000
vt -7.7961 0.0000 0.0000
vt -7.7943 0.1941 0.0000
vt -7.9430 0.1941 0.0000
vt -7.8704 0.0000 0.0000
vt 5.0000 7.3687 0.0000
vt 5.0000 -7.3687 0.0000
vt 4.6265 8.0157 0.0000
vt 4.6265 -8.0157 0.0000
vt 5.3735 8.0157 0.0000
vt 5.3735 -8.0157 0.0000
# 46 texture coords

o plant_large002
g plant_large002
usemtl Material__87
s off
f 1/1/1 2/2/2 3/3/3 
f 4/4/4 3/3/3 2/2/2 
f 5/5/5 6/6/6 7/7/7 
f 7/7/7 8/8/8 5/5/5 
f 9/9/9 10/10/10 11/11/11 
f 12/12/12 11/11/11 10/10/10 
f 13/13/13 14/14/14 15/15/15 
f 15/15/15 16/16/16 13/13/13 
f 17/17/17 18/18/18 19/19/19 
f 20/20/20 19/19/19 18/18/18 
f 21/21/21 22/22/22 23/23/23 
f 23/23/23 24/24/24 21/21/21 
f 25/25/25 26/26/26 27/27/27 
f 28/28/28 27/27/27 26/26/26 
f 29/29/29 30/30/30 31/31/31 
f 31/31/31 32/32/32 29/29/29 
f 33/33/33 34/34/34 35/35/35 
f 36/36/36 35/35/35 34/34/34 
f 37/37/37 38/38/38 39/39/39 
f 39/39/39 40/40/40 37/37/37 
f 41/41/41 42/2/42 43/1/43 
f 44/5/44 45/42/45 46/6/46 
f 47/38/47 48/39/48 49/37/49 
f 50/40/50 49/37/49 48/39/48 
f 51/35/51 52/33/52 53/34/53 
f 53/34/53 54/36/54 51/35/51 
f 55/17/55 56/19/56 57/43/57 
f 58/23/58 59/22/59 60/44/60 
f 61/12/61 62/45/62 63/11/63 
f 64/46/64 65/16/65 66/15/66 
f 67/3/7 68/2/5 69/1/6 
f 68/2/5 67/3/7 70/4/8 
f 67/7/67 69/6/1 68/5/2 
f 68/5/2 70/8/4 67/7/67 
f 71/11/15 72/10/13 73/9/14 
f 72/10/13 71/11/15 74/12/16 
f 71/15/11 73/14/68 72/13/10 
f 72/13/10 74/16/12 71/15/11 
f 75/19/23 76/18/21 77/17/69 
f 76/18/21 75/19/23 78/20/24 
f 75/23/19 77/22/17 76/21/18 
f 76/21/18 78/24/70 75/23/19 
f 79/27/31 67/26/29 80/25/71 
f 67/26/29 79/27/31 70/28/32 
f 79/31/72 80/30/73 67/29/26 
f 67/29/26 70/32/28 79/31/72 
f 78/35/39 81/34/37 76/33/74 
f 81/34/37 78/35/39 82/36/40 
f 78/39/35 76/38/75 81/37/34 
f 81/37/34 82/40/76 78/39/35 
f 69/1/77 68/2/44 83/41/45 
f 69/6/43 83/42/78 68/5/42 
f 84/37/79 73/39/51 72/38/80 
f 73/39/51 84/37/79 85/40/81 
f 84/34/82 72/33/83 73/35/84 
f 73/35/84 85/36/50 84/34/82 
f 86/43/60 75/19/85 77/17/59 
f 86/44/86 77/22/87 75/23/88 
f 71/11/89 87/45/90 74/12/91 
f 71/15/63 74/16/61 87/46/92 
s 1
f 2/2/2 1/1/1 69/1/6 68/2/5 
s 2
f 1/1/1 3/3/3 67/3/7 69/1/6 
s 1
f 3/3/3 4/4/4 70/4/8 67/3/7 
s 2
f 4/4/4 2/2/2 68/2/5 70/4/8 
s 1
f 6/6/6 5/5/5 68/5/2 69/6/1 
s 2
f 7/7/7 6/6/6 69/6/1 67/7/67 
s 1
f 8/8/8 7/7/7 67/7/67 70/8/4 
s 2
f 5/5/5 8/8/8 70/8/4 68/5/2 
s 1
f 10/10/10 9/9/9 73/9/14 72/10/13 
s 2
f 9/9/9 11/11/11 71/11/15 73/9/14 
s 1
f 11/11/11 12/12/12 74/12/16 71/11/15 
s 2
f 12/12/12 10/10/10 72/10/13 74/12/16 
s 1
f 14/14/14 13/13/13 72/13/10 73/14/68 
s 2
f 15/15/15 14/14/14 73/14/68 71/15/11 
s 1
f 16/16/16 15/15/15 71/15/11 74/16/12 
s 2
f 13/13/13 16/16/16 74/16/12 72/13/10 
s 1
f 18/18/18 17/17/17 77/17/69 76/18/21 
s 2
f 17/17/17 19/19/19 75/19/23 77/17/69 
s 1
f 19/19/19 20/20/20 78/20/24 75/19/23 
s 2
f 20/20/20 18/18/18 76/18/21 78/20/24 
s 1
f 22/22/22 21/21/21 76/21/18 77/22/17 
s 2
f 23/23/23 22/22/22 77/22/17 75/23/19 
s 1
f 24/24/24 23/23/23 75/23/19 78/24/70 
s 2
f 21/21/21 24/24/24 78/24/70 76/21/18 
s 1
f 26/26/26 25/25/25 80/25/71 67/26/29 
s 2
f 25/25/25 27/27/27 79/27/31 80/25/71 
s 1
f 27/27/27 28/28/28 70/28/32 79/27/31 
s 2
f 28/28/28 26/26/26 67/26/29 70/28/32 
s 1
f 30/30/30 29/29/29 67/29/26 80/30/73 
s 2
f 31/31/31 30/30/30 80/30/73 79/31/72 
s 1
f 32/32/32 31/31/31 79/31/72 70/32/28 
s 2
f 29/29/29 32/32/32 70/32/28 67/29/26 
s 1
f 34/34/34 33/33/33 76/33/74 81/34/37 
s 2
f 33/33/33 35/35/35 78/35/39 76/33/74 
s 1
f 35/35/35 36/36/36 82/36/40 78/35/39 
s 2
f 36/36/36 34/34/34 81/34/37 82/36/40 
s 1
f 38/38/38 37/37/37 81/37/34 76/38/75 
s 2
f 39/39/39 38/38/38 76/38/75 78/39/35 
s 1
f 40/40/40 39/39/39 78/39/35 82/40/76 
s 2
f 37/37/37 40/40/40 82/40/76 81/37/34 
s 1
f 42/2/42 41/41/41 83/41/45 68/2/44 
s 2
f 43/1/43 42/2/42 68/2/44 69/1/77 
s 4
f 41/41/41 43/1/43 69/1/77 83/41/45 
s 1
f 45/42/45 44/5/44 68/5/42 83/42/78 
s 2
f 46/6/46 45/42/45 83/42/78 69/6/43 
s 4
f 44/5/44 46/6/46 69/6/43 68/5/42 
s 1
f 48/39/48 47/38/47 72/38/80 73/39/51 
s 2
f 47/38/47 49/37/49 84/37/79 72/38/80 
s 1
f 49/37/49 50/40/50 85/40/81 84/37/79 
s 2
f 50/40/50 48/39/48 73/39/51 85/40/81 
s 1
f 52/33/52 51/35/51 73/35/84 72/33/83 
s 2
f 53/34/53 52/33/52 72/33/83 84/34/82 
s 1
f 54/36/54 53/34/53 84/34/82 85/36/50 
s 2
f 51/35/51 54/36/54 85/36/50 73/35/84 
s 1
f 56/19/56 55/17/55 77/17/59 75/19/85 
s 2
f 57/43/57 56/19/56 75/19/85 86/43/60 
s 4
f 55/17/55 57/43/57 86/43/60 77/17/59 
s 1
f 59/22/59 58/23/58 75/23/88 77/22/87 
s 2
f 60/44/60 59/22/59 77/22/87 86/44/86 
s 4
f 58/23/58 60/44/60 86/44/86 75/23/88 
s 1
f 62/45/62 61/12/61 74/12/91 87/45/90 
s 2
f 63/11/63 62/45/62 87/45/90 71/11/89 
s 4
f 61/12/61 63/11/63 71/11/89 74/12/91 
s 1
f 65/16/65 64/46/64 87/46/92 74/16/61 
s 2
f 66/15/66 65/16/65 74/16/61 71/15/63 
s 4
f 64/46/64 66/15/66 71/15/63 87/46/92 
# 66 polygons - 60 triangles

