# 3ds Max Wavefront OBJ Exporter v0.97b - (c)2007 guruware
# File Created: 16.09.2021 20:18:48

mtllib dom 7.mtl

#
# object Highrise_7
#

v  3.5979 8.7058 1.5484
v  3.5979 8.7058 3.2470
v  3.5979 -9.7182 3.2470
v  3.5979 -9.7182 1.5484
v  3.4477 8.7058 -0.0000
v  3.4477 8.7058 1.5484
v  3.4477 -9.7182 1.5484
v  3.4477 -9.7182 -0.0000
v  3.4477 8.7058 -1.5484
v  3.4477 -9.7182 -1.5484
v  3.5979 8.7058 -3.2470
v  3.5979 8.7058 -1.5484
v  3.5979 -9.7182 -1.5484
v  3.5979 -9.7182 -3.2470
v  1.7239 8.7058 -3.2470
v  1.7239 -9.7182 -3.2470
v  0.0000 8.7058 -3.0968
v  1.7239 8.7058 -3.0968
v  1.7239 -9.7182 -3.0968
v  0.0000 -9.7182 -3.0968
v  -1.7239 8.7058 -3.0968
v  -1.7239 -9.7182 -3.0968
v  -3.5979 8.7058 -3.2470
v  -1.7239 8.7058 -3.2470
v  -1.7239 -9.7182 -3.2470
v  -3.5979 -9.7182 -3.2470
v  -3.4477 8.7058 -0.0000
v  -3.4477 8.7058 -1.5484
v  -3.4477 -9.7182 -1.5484
v  -3.4477 -9.7182 -0.0000
v  -3.4477 8.7058 1.5484
v  -3.4477 -9.7182 1.5484
v  -1.7239 8.7058 3.2470
v  -3.5979 8.7058 3.2470
v  -3.5979 -9.7182 3.2470
v  -1.7239 -9.7182 3.2470
v  0.0000 8.7058 3.0968
v  -1.7239 8.7058 3.0968
v  -1.7239 -9.7182 3.0968
v  0.0000 -9.7182 3.0968
v  1.7239 8.7058 3.0968
v  1.7239 -9.7182 3.0968
v  1.7239 8.7058 3.2470
v  1.7239 -9.7182 3.2470
v  1.7239 9.4663 1.5484
v  1.7239 9.4663 2.8013
v  3.1523 9.4663 2.8013
v  3.1523 9.4663 1.5484
v  1.7239 9.4663 -0.0000
v  3.1523 9.4663 -0.0000
v  1.7239 9.4663 -1.5484
v  3.1523 9.4663 -1.5484
v  1.7239 9.4663 -2.8013
v  3.1523 9.4663 -2.8013
v  0.0000 9.4663 1.5484
v  0.0000 9.4663 2.8013
v  0.0000 9.6407 -0.0000
v  0.0000 9.6407 1.5484
v  1.7239 9.6407 1.5484
v  1.7239 9.6407 -0.0000
v  0.0000 9.6407 -1.5484
v  1.7239 9.6407 -1.5484
v  0.0000 9.4663 -2.8013
v  0.0000 9.4663 -1.5484
v  -1.7239 9.4663 1.5484
v  -1.7239 9.4663 2.8013
v  -1.7239 9.4663 -0.0000
v  0.0000 9.4663 -0.0000
v  -1.7239 9.4663 -1.5484
v  -1.7239 9.4663 -2.8013
v  -3.1523 9.4663 1.5484
v  -3.1523 9.4663 2.8013
v  -3.1523 9.4663 -0.0000
v  -3.1523 9.4663 -1.5484
v  -3.1523 9.4663 -2.8013
v  -1.7239 -9.7182 1.5484
v  -3.4477 -9.7182 3.0968
v  -1.7239 -9.7182 -0.0000
v  -1.7239 -9.7182 -1.5484
v  -3.4477 -9.7182 -3.0968
v  0.0000 -9.7182 1.5484
v  0.0000 -9.7182 -0.0000
v  0.0000 -9.7182 -1.5484
v  1.7239 -9.7182 1.5484
v  1.7239 -9.7182 -0.0000
v  1.7239 -9.7182 -1.5484
v  3.4477 -9.7182 3.0968
v  3.4477 -9.7182 -3.0968
v  2.8083 8.8366 1.5484
v  2.8083 8.8366 2.4574
v  2.8083 8.7058 2.4574
v  2.8083 8.7058 1.5484
v  1.7239 8.8366 2.4574
v  1.7239 8.7058 2.4574
v  2.8083 8.8366 -0.0000
v  2.8083 8.7058 -0.0000
v  2.8083 8.8366 -1.5484
v  2.8083 8.7058 -1.5484
v  2.8083 8.8366 -2.4574
v  2.8083 8.7058 -2.4574
v  1.7239 8.8366 -2.4574
v  1.7239 8.7058 -2.4574
v  0.0000 8.8366 2.4574
v  0.0000 8.7058 2.4574
v  0.0000 8.8366 -2.4574
v  0.0000 8.7058 -2.4574
v  -1.7239 8.8366 2.4574
v  -1.7239 8.7058 2.4574
v  -1.7239 8.8366 -2.4574
v  -1.7239 8.7058 -2.4574
v  -2.8083 8.8366 2.4574
v  -2.8083 8.8366 1.5484
v  -2.8083 8.7058 1.5484
v  -2.8083 8.7058 2.4574
v  -2.8083 8.8366 -0.0000
v  -2.8083 8.7058 -0.0000
v  -2.8083 8.8366 -1.5484
v  -2.8083 8.7058 -1.5484
v  -2.8083 8.8366 -2.4574
v  -2.8083 8.7058 -2.4574
v  3.4477 9.7182 1.5484
v  3.4477 9.7182 3.0968
v  3.4477 8.8366 3.0968
v  3.4477 8.8366 1.5484
v  1.7239 9.7182 3.0968
v  1.7239 8.8366 3.0968
v  3.4477 9.7182 -0.0000
v  3.4477 8.8366 -0.0000
v  3.4477 9.7182 -1.5484
v  3.4477 8.8366 -1.5484
v  3.4477 9.7182 -3.0968
v  3.4477 8.8366 -3.0968
v  1.7239 9.7182 -3.0968
v  1.7239 8.8366 -3.0968
v  0.0000 9.7182 3.0968
v  0.0000 8.8366 3.0968
v  0.0000 9.7182 -3.0968
v  0.0000 8.8366 -3.0968
v  -1.7239 9.7182 3.0968
v  -1.7239 8.8366 3.0968
v  -1.7239 9.7182 -3.0968
v  -1.7239 8.8366 -3.0968
v  -3.4477 9.7182 3.0968
v  -3.4477 9.7182 1.5484
v  -3.4477 8.8366 1.5484
v  -3.4477 8.8366 3.0968
v  -3.4477 9.7182 -0.0000
v  -3.4477 8.8366 -0.0000
v  -3.4477 9.7182 -1.5484
v  -3.4477 8.8366 -1.5484
v  -3.4477 9.7182 -3.0968
v  -3.4477 8.8366 -3.0968
v  3.1523 9.7182 1.5484
v  3.1523 9.7182 2.8013
v  1.7239 9.7182 2.8013
v  3.1523 9.7182 -0.0000
v  3.1523 9.7182 -1.5484
v  3.1523 9.7182 -2.8013
v  1.7239 9.7182 -2.8013
v  0.0000 9.7182 2.8013
v  0.0000 9.7182 -2.8013
v  -1.7239 9.7182 2.8013
v  -1.7239 9.7182 -2.8013
v  -3.1523 9.7182 2.8013
v  -3.1523 9.7182 1.5484
v  -3.1523 9.7182 -0.0000
v  -3.1523 9.7182 -1.5484
v  -3.1523 9.7182 -2.8013
v  3.4477 8.7058 3.0968
v  3.4477 8.7058 -3.0968
v  -3.4477 8.7058 3.0968
v  -3.4477 8.7058 -3.0968
v  -3.5979 -9.7182 -1.5484
v  -3.5979 8.7058 -1.5484
v  -3.5979 -9.7182 1.5484
v  -3.5979 8.7058 1.5484
# 176 vertices

vn 0.5774 0.5774 -0.5774
vn 0.8944 0.4472 -0.0000
vn 0.8944 -0.4472 -0.0000
vn 0.5774 -0.5774 -0.5774
vn 1.0000 0.0000 -0.0000
vn 0.5774 0.5774 0.5774
vn 0.5774 -0.5774 0.5774
vn -0.5774 0.5774 -0.5774
vn 0.0000 0.4472 -0.8944
vn 0.0000 -0.4472 -0.8944
vn -0.5774 -0.5774 -0.5774
vn 0.0000 0.0000 -1.0000
vn -0.7071 0.7071 -0.0000
vn -0.5774 0.5774 0.5774
vn -0.5774 -0.5774 0.5774
vn -0.7071 -0.7071 -0.0000
vn 0.0000 0.4472 0.8944
vn 0.0000 -0.4472 0.8944
vn 0.0000 0.0000 1.0000
vn 0.3015 0.9045 0.3015
vn 0.0000 0.7071 -0.7071
vn 0.7071 0.7071 -0.0000
vn 0.3015 0.9045 -0.3015
vn 0.0000 0.7071 0.7071
vn -0.3015 0.9045 0.3015
vn -0.3015 0.9045 -0.3015
vn 0.0000 1.0000 -0.0000
vn 0.0000 -1.0000 -0.0000
vn 0.7071 -0.7071 -0.0000
vn 0.3015 -0.9045 0.3015
vn 0.0000 -0.7071 0.7071
vn 0.3015 -0.9045 -0.3015
vn 0.0000 -0.7071 -0.7071
vn -0.3015 -0.9045 0.3015
vn -0.3015 -0.9045 -0.3015
# 35 vertex normals

vt 0.2500 1.0000 0.0000
vt 0.0000 1.0000 0.0000
vt 0.0000 0.0000 0.0000
vt 0.2500 0.0000 0.0000
vt 0.5000 1.0000 0.0000
vt 0.5000 0.0000 0.0000
vt 0.7500 1.0000 0.0000
vt 0.7500 0.0000 0.0000
vt 1.0000 1.0000 0.0000
vt 1.0000 0.0000 0.0000
vt 0.2500 0.2500 0.0000
vt 0.0213 0.2287 0.0000
vt 0.0450 0.0450 0.0000
vt 0.2263 0.0237 0.0000
vt 0.5000 0.2500 0.0000
vt 0.2737 0.0237 0.0000
vt 0.4763 0.0237 0.0000
vt 0.7500 0.2500 0.0000
vt 0.5237 0.0237 0.0000
vt 0.7263 0.0237 0.0000
vt 0.9787 0.2287 0.0000
vt 0.7737 0.0237 0.0000
vt 0.9550 0.0450 0.0000
vt 0.2500 0.5000 0.0000
vt 0.0213 0.4787 0.0000
vt 0.0213 0.2713 0.0000
vt 0.5000 0.5000 0.0000
vt 0.7500 0.5000 0.0000
vt 0.9787 0.4787 0.0000
vt 0.9787 0.2713 0.0000
vt 0.2500 0.7500 0.0000
vt 0.0213 0.7287 0.0000
vt 0.0213 0.5213 0.0000
vt 0.5000 0.7500 0.0000
vt 0.7500 0.7500 0.0000
vt 0.9787 0.7287 0.0000
vt 0.9787 0.5213 0.0000
vt 0.2263 0.9763 0.0000
vt 0.0450 0.9550 0.0000
vt 0.0213 0.7713 0.0000
vt 0.4763 0.9763 0.0000
vt 0.2737 0.9763 0.0000
vt 0.7263 0.9763 0.0000
vt 0.5237 0.9763 0.0000
vt 0.9550 0.9550 0.0000
vt 0.7737 0.9763 0.0000
vt 0.9787 0.7713 0.0000
vt 0.0000 0.2500 0.0000
vt 1.0000 0.2500 0.0000
vt 0.0000 0.5000 0.0000
vt 1.0000 0.5000 0.0000
vt 0.0000 0.7500 0.0000
vt 1.0000 0.7500 0.0000
# 53 texture coords

o Highrise_7
g Highrise_7
usemtl wire_088088225
s off
f 1/1/1 2/2/2 3/3/3 
f 4/4/4 1/1/1 3/3/3 
f 5/5/5 6/1/1 7/4/4 
f 8/6/5 5/5/5 7/4/4 
f 9/7/6 5/5/5 8/6/5 
f 10/8/7 9/7/6 8/6/5 
f 11/9/2 12/7/6 13/8/7 
f 14/10/3 11/9/2 13/8/7 
f 15/1/8 11/2/9 14/3/10 
f 16/4/11 15/1/8 14/3/10 
f 17/5/12 18/1/8 19/4/11 
f 20/6/12 17/5/12 19/4/11 
f 21/7/1 17/5/12 20/6/12 
f 22/8/4 21/7/1 20/6/12 
f 23/9/9 24/7/1 25/8/4 
f 26/10/10 23/9/9 25/8/4 
f 27/5/13 28/1/14 29/4/15 
f 30/6/16 27/5/13 29/4/15 
f 31/7/8 27/5/13 30/6/16 
f 32/8/11 31/7/8 30/6/16 
f 33/1/6 34/2/17 35/3/18 
f 36/4/7 33/1/6 35/3/18 
f 37/5/19 38/1/6 39/4/7 
f 40/6/19 37/5/19 39/4/7 
f 41/7/14 37/5/19 40/6/19 
f 42/8/15 41/7/14 40/6/19 
f 2/9/17 43/7/14 44/8/15 
f 3/10/18 2/9/17 44/8/15 
f 45/11/20 46/12/21 47/13/8 
f 48/14/13 45/11/20 47/13/8 
f 49/15/22 45/11/20 48/16/13 
f 50/17/13 49/15/22 48/16/13 
f 51/18/23 49/15/22 50/19/13 
f 52/20/13 51/18/23 50/19/13 
f 53/21/24 51/18/23 52/22/13 
f 54/23/14 53/21/24 52/22/13 
f 55/24/25 56/25/21 46/26/21 
f 45/11/20 55/24/25 46/26/21 
f 57/27/13 58/24/14 59/11/6 
f 60/15/22 57/27/13 59/11/6 
f 61/28/8 57/27/13 60/15/22 
f 62/18/1 61/28/8 60/15/22 
f 63/29/24 64/28/26 51/18/23 
f 53/30/24 63/29/24 51/18/23 
f 65/31/27 66/32/21 56/33/21 
f 55/24/25 65/31/27 56/33/21 
f 67/34/27 65/31/27 55/24/25 
f 68/27/13 67/34/27 55/24/25 
f 69/35/27 67/34/27 68/27/13 
f 64/28/26 69/35/27 68/27/13 
f 70/36/24 69/35/27 64/28/26 
f 63/37/24 70/36/24 64/28/26 
f 71/38/22 72/39/1 66/40/21 
f 65/31/27 71/38/22 66/40/21 
f 73/41/22 71/42/22 65/31/27 
f 67/34/27 73/41/22 65/31/27 
f 74/43/22 73/44/22 67/34/27 
f 69/35/27 74/43/22 67/34/27 
f 75/45/6 74/46/22 69/35/27 
f 70/47/24 75/45/6 69/35/27 
f 76/11/28 39/48/28 77/3/28 
f 32/4/28 76/11/28 77/3/28 
f 78/15/28 76/11/28 32/4/28 
f 30/6/16 78/15/28 32/4/28 
f 79/18/28 78/15/28 30/6/16 
f 29/8/28 79/18/28 30/6/16 
f 22/49/28 79/18/28 29/8/28 
f 80/10/28 22/49/28 29/8/28 
f 81/24/28 40/50/28 39/48/28 
f 76/11/28 81/24/28 39/48/28 
f 82/27/28 81/24/28 76/11/28 
f 78/15/28 82/27/28 76/11/28 
f 83/28/28 82/27/28 78/15/28 
f 79/18/28 83/28/28 78/15/28 
f 20/51/28 83/28/28 79/18/28 
f 22/49/28 20/51/28 79/18/28 
f 84/31/28 42/52/28 40/50/28 
f 81/24/28 84/31/28 40/50/28 
f 85/34/28 84/31/28 81/24/28 
f 82/27/28 85/34/28 81/24/28 
f 86/35/28 85/34/28 82/27/28 
f 83/28/28 86/35/28 82/27/28 
f 19/53/28 86/35/28 83/28/28 
f 20/51/28 19/53/28 83/28/28 
f 7/1/28 87/2/28 42/52/28 
f 84/31/28 7/1/28 42/52/28 
f 8/5/28 7/1/28 84/31/28 
f 85/34/28 8/5/28 84/31/28 
f 10/7/28 8/5/28 85/34/28 
f 86/35/28 10/7/28 85/34/28 
f 88/9/28 10/7/28 86/35/28 
f 19/53/28 88/9/28 86/35/28 
f 89/4/29 90/3/30 91/3/20 
f 92/4/22 89/4/29 91/3/20 
f 90/3/30 93/48/31 94/48/24 
f 91/3/20 90/3/30 94/48/24 
f 95/6/29 89/4/29 92/4/22 
f 96/6/22 95/6/29 92/4/22 
f 97/8/29 95/6/29 96/6/22 
f 98/8/22 97/8/29 96/6/22 
f 99/10/32 97/8/29 98/8/22 
f 100/10/23 99/10/32 98/8/22 
f 101/49/33 99/10/32 100/10/23 
f 102/49/21 101/49/33 100/10/23 
f 93/48/31 103/50/31 104/50/24 
f 94/48/24 93/48/31 104/50/24 
f 105/51/33 101/49/33 102/49/21 
f 106/51/21 105/51/33 102/49/21 
f 103/50/31 107/52/31 108/52/24 
f 104/50/24 103/50/31 108/52/24 
f 109/53/33 105/51/33 106/51/21 
f 110/53/21 109/53/33 106/51/21 
f 111/2/34 112/1/16 113/1/13 
f 114/2/25 111/2/34 113/1/13 
f 107/52/31 111/2/34 114/2/25 
f 108/52/24 107/52/31 114/2/25 
f 112/1/16 115/5/16 116/5/13 
f 113/1/13 112/1/16 116/5/13 
f 115/5/16 117/7/16 118/7/13 
f 116/5/13 115/5/16 118/7/13 
f 119/9/35 109/53/33 110/53/21 
f 120/9/26 119/9/35 110/53/21 
f 117/7/16 119/9/35 120/9/26 
f 118/7/13 117/7/16 120/9/26 
f 121/4/22 122/3/6 123/3/7 
f 124/4/29 121/4/22 123/3/7 
f 122/3/6 125/48/24 126/48/31 
f 123/3/7 122/3/6 126/48/31 
f 127/6/22 121/4/22 124/4/29 
f 128/6/29 127/6/22 124/4/29 
f 129/8/22 127/6/22 128/6/29 
f 130/8/29 129/8/22 128/6/29 
f 131/10/1 129/8/22 130/8/29 
f 132/10/4 131/10/1 130/8/29 
f 133/49/21 131/10/1 132/10/4 
f 134/49/33 133/49/21 132/10/4 
f 125/48/24 135/50/24 136/50/31 
f 126/48/31 125/48/24 136/50/31 
f 137/51/21 133/49/21 134/49/33 
f 138/51/33 137/51/21 134/49/33 
f 135/50/24 139/52/24 140/52/31 
f 136/50/31 135/50/24 140/52/31 
f 141/53/21 137/51/21 138/51/33 
f 142/53/33 141/53/21 138/51/33 
f 143/2/14 144/1/13 145/1/16 
f 146/2/15 143/2/14 145/1/16 
f 139/52/24 143/2/14 146/2/15 
f 140/52/31 139/52/24 146/2/15 
f 144/1/13 147/5/13 148/5/16 
f 145/1/16 144/1/13 148/5/16 
f 147/5/13 149/7/13 150/7/16 
f 148/5/16 147/5/13 150/7/16 
f 151/9/8 141/53/21 142/53/33 
f 152/9/11 151/9/8 142/53/33 
f 149/7/13 151/9/8 152/9/11 
f 150/7/16 149/7/13 152/9/11 
f 153/14/13 154/13/26 122/3/6 
f 121/4/22 153/14/13 122/3/6 
f 154/13/26 155/12/21 125/48/24 
f 122/3/6 154/13/26 125/48/24 
f 156/17/13 153/16/13 121/4/22 
f 127/6/22 156/17/13 121/4/22 
f 157/20/13 156/19/13 127/6/22 
f 129/8/22 157/20/13 127/6/22 
f 158/23/25 157/22/13 129/8/22 
f 131/10/1 158/23/25 129/8/22 
f 159/21/24 158/23/25 131/10/1 
f 133/49/21 159/21/24 131/10/1 
f 155/26/21 160/25/21 135/50/24 
f 125/48/24 155/26/21 135/50/24 
f 161/29/24 159/30/24 133/49/21 
f 137/51/21 161/29/24 133/49/21 
f 160/33/21 162/32/21 139/52/24 
f 135/50/24 160/33/21 139/52/24 
f 163/36/24 161/37/24 137/51/21 
f 141/53/21 163/36/24 137/51/21 
f 164/39/23 165/38/22 144/1/13 
f 143/2/14 164/39/23 144/1/13 
f 162/40/21 164/39/23 143/2/14 
f 139/52/24 162/40/21 143/2/14 
f 165/42/22 166/41/22 147/5/13 
f 144/1/13 165/42/22 147/5/13 
f 166/44/22 167/43/22 149/7/13 
f 147/5/13 166/44/22 149/7/13 
f 168/45/20 163/47/24 141/53/21 
f 151/9/8 168/45/20 141/53/21 
f 167/46/22 168/45/20 151/9/8 
f 149/7/13 167/46/22 151/9/8 
f 48/14/13 47/13/8 154/13/26 
f 153/14/13 48/14/13 154/13/26 
f 47/13/8 46/12/21 155/12/21 
f 154/13/26 47/13/8 155/12/21 
f 50/17/13 48/16/13 153/16/13 
f 156/17/13 50/17/13 153/16/13 
f 52/20/13 50/19/13 156/19/13 
f 157/20/13 52/20/13 156/19/13 
f 54/23/14 52/22/13 157/22/13 
f 158/23/25 54/23/14 157/22/13 
f 53/21/24 54/23/14 158/23/25 
f 159/21/24 53/21/24 158/23/25 
f 46/26/21 56/25/21 160/25/21 
f 155/26/21 46/26/21 160/25/21 
f 63/29/24 53/30/24 159/30/24 
f 161/29/24 63/29/24 159/30/24 
f 56/33/21 66/32/21 162/32/21 
f 160/33/21 56/33/21 162/32/21 
f 70/36/24 63/37/24 161/37/24 
f 163/36/24 70/36/24 161/37/24 
f 72/39/1 71/38/22 165/38/22 
f 164/39/23 72/39/1 165/38/22 
f 66/40/21 72/39/1 164/39/23 
f 162/40/21 66/40/21 164/39/23 
f 71/42/22 73/41/22 166/41/22 
f 165/42/22 71/42/22 166/41/22 
f 73/44/22 74/43/22 167/43/22 
f 166/44/22 73/44/22 167/43/22 
f 75/45/6 70/47/24 163/47/24 
f 168/45/20 75/45/6 163/47/24 
f 74/46/22 75/45/6 168/45/20 
f 167/46/22 74/46/22 168/45/20 
f 92/4/22 91/3/20 169/3/27 
f 6/4/27 92/4/22 169/3/27 
f 90/3/30 89/4/29 124/4/29 
f 123/3/7 90/3/30 124/4/29 
f 91/3/20 94/48/24 41/48/27 
f 169/3/27 91/3/20 41/48/27 
f 93/48/31 90/3/30 123/3/7 
f 126/48/31 93/48/31 123/3/7 
f 96/6/22 92/4/22 6/4/27 
f 5/6/27 96/6/22 6/4/27 
f 89/4/29 95/6/29 128/6/29 
f 124/4/29 89/4/29 128/6/29 
f 98/8/22 96/6/22 5/6/27 
f 9/8/27 98/8/22 5/6/27 
f 95/6/29 97/8/29 130/8/29 
f 128/6/29 95/6/29 130/8/29 
f 100/10/23 98/8/22 9/8/27 
f 170/10/27 100/10/23 9/8/27 
f 97/8/29 99/10/32 132/10/4 
f 130/8/29 97/8/29 132/10/4 
f 102/49/21 100/10/23 170/10/27 
f 18/49/27 102/49/21 170/10/27 
f 99/10/32 101/49/33 134/49/33 
f 132/10/4 99/10/32 134/49/33 
f 94/48/24 104/50/24 37/50/27 
f 41/48/27 94/48/24 37/50/27 
f 103/50/31 93/48/31 126/48/31 
f 136/50/31 103/50/31 126/48/31 
f 106/51/21 102/49/21 18/49/27 
f 17/51/27 106/51/21 18/49/27 
f 101/49/33 105/51/33 138/51/33 
f 134/49/33 101/49/33 138/51/33 
f 104/50/24 108/52/24 38/52/27 
f 37/50/27 104/50/24 38/52/27 
f 107/52/31 103/50/31 136/50/31 
f 140/52/31 107/52/31 136/50/31 
f 110/53/21 106/51/21 17/51/27 
f 21/53/27 110/53/21 17/51/27 
f 105/51/33 109/53/33 142/53/33 
f 138/51/33 105/51/33 142/53/33 
f 114/2/25 113/1/13 31/1/27 
f 171/2/27 114/2/25 31/1/27 
f 112/1/16 111/2/34 146/2/15 
f 145/1/16 112/1/16 146/2/15 
f 108/52/24 114/2/25 171/2/27 
f 38/52/27 108/52/24 171/2/27 
f 111/2/34 107/52/31 140/52/31 
f 146/2/15 111/2/34 140/52/31 
f 113/1/13 116/5/13 27/5/13 
f 31/1/27 113/1/13 27/5/13 
f 115/5/16 112/1/16 145/1/16 
f 148/5/16 115/5/16 145/1/16 
f 116/5/13 118/7/13 28/7/27 
f 27/5/13 116/5/13 28/7/27 
f 117/7/16 115/5/16 148/5/16 
f 150/7/16 117/7/16 148/5/16 
f 120/9/26 110/53/21 21/53/27 
f 172/9/27 120/9/26 21/53/27 
f 109/53/33 119/9/35 152/9/11 
f 142/53/33 109/53/33 152/9/11 
f 118/7/13 120/9/26 172/9/27 
f 28/7/27 118/7/13 172/9/27 
f 119/9/35 117/7/16 150/7/16 
f 152/9/11 119/9/35 150/7/16 
f 4/4/4 3/3/3 87/3/28 
f 7/4/4 4/4/4 87/3/28 
f 1/1/1 4/4/4 7/4/4 
f 6/1/1 1/1/1 7/4/4 
f 2/2/2 1/1/1 6/1/1 
f 169/2/27 2/2/2 6/1/1 
f 3/10/18 44/8/15 42/8/15 
f 87/10/28 3/10/18 42/8/15 
f 43/7/14 2/9/17 169/9/27 
f 41/7/14 43/7/14 169/9/27 
f 44/8/15 43/7/14 41/7/14 
f 42/8/15 44/8/15 41/7/14 
f 14/10/3 13/8/7 10/8/7 
f 88/10/28 14/10/3 10/8/7 
f 12/7/6 11/9/2 170/9/27 
f 9/7/6 12/7/6 170/9/27 
f 13/8/7 12/7/6 9/7/6 
f 10/8/7 13/8/7 9/7/6 
f 16/4/11 14/3/10 88/3/28 
f 19/4/11 16/4/11 88/3/28 
f 15/1/8 16/4/11 19/4/11 
f 18/1/8 15/1/8 19/4/11 
f 11/2/9 15/1/8 18/1/8 
f 170/2/27 11/2/9 18/1/8 
f 26/10/10 25/8/4 22/8/4 
f 80/10/28 26/10/10 22/8/4 
f 24/7/1 23/9/9 172/9/27 
f 21/7/1 24/7/1 172/9/27 
f 25/8/4 24/7/1 21/7/1 
f 22/8/4 25/8/4 21/7/1 
f 173/4/31 26/3/28 80/3/28 
f 29/4/15 173/4/31 80/3/28 
f 174/1/24 173/4/31 29/4/15 
f 28/1/14 174/1/24 29/4/15 
f 23/2/27 174/1/24 28/1/14 
f 172/2/27 23/2/27 28/1/14 
f 35/10/28 175/8/33 32/8/11 
f 77/10/28 35/10/28 32/8/11 
f 176/7/21 34/9/27 171/9/27 
f 31/7/8 176/7/21 171/9/27 
f 175/8/33 176/7/21 31/7/8 
f 32/8/11 175/8/33 31/7/8 
f 36/4/7 35/3/18 77/3/28 
f 39/4/7 36/4/7 77/3/28 
f 33/1/6 36/4/7 39/4/7 
f 38/1/6 33/1/6 39/4/7 
f 34/2/17 33/1/6 38/1/6 
f 171/2/27 34/2/17 38/1/6 
f 60/15/22 59/11/6 45/11/20 
f 49/15/22 60/15/22 45/11/20 
f 58/24/14 57/27/13 68/27/13 
f 55/24/25 58/24/14 68/27/13 
f 59/11/6 58/24/14 55/24/25 
f 45/11/20 59/11/6 55/24/25 
f 62/18/1 60/15/22 49/15/22 
f 51/18/23 62/18/1 49/15/22 
f 61/28/8 62/18/1 51/18/23 
f 64/28/26 61/28/8 51/18/23 
f 57/27/13 61/28/8 64/28/26 
f 68/27/13 57/27/13 64/28/26 
# 0 polygons - 344 triangles

#
# object Object012
#

v  -3.5979 8.7058 -1.5484
v  -3.5979 8.7058 -3.2470
v  -3.5979 -9.7182 -3.2470
v  -3.5979 -9.7182 -1.5484
v  -3.5979 8.7058 3.2470
v  -3.5979 8.7058 1.5484
v  -3.5979 -9.7182 1.5484
v  -3.5979 -9.7182 3.2470
# 8 vertices

vn -1.0000 0.0000 0.0000
# 1 vertex normals

vt 0.2500 1.0000 0.0000
vt 0.0000 1.0000 0.0000
vt 0.0000 0.0000 0.0000
vt 0.2500 0.0000 0.0000
vt 1.0000 1.0000 0.0000
vt 0.7500 1.0000 0.0000
vt 0.7500 0.0000 0.0000
vt 1.0000 0.0000 0.0000
# 8 texture coords

o Object012
g Object012
usemtl wire_088088225
s off
f 177/54/36 178/55/36 179/56/36 
f 180/57/36 177/54/36 179/56/36 
f 181/58/36 182/59/36 183/60/36 
f 184/61/36 181/58/36 183/60/36 
# 0 polygons - 4 triangles

