# 3ds Max Wavefront OBJ Exporter v0.97b - (c)2007 guruware
# File Created: 16.09.2021 20:21:10

mtllib dom 13.mtl

#
# object Object004
#

v  -1.8869 6.4978 1.8185
v  -1.8869 6.4978 -1.8185
v  -1.8869 5.4799 -1.8185
v  -1.8869 5.4799 1.8185
# 4 vertices

vn -1.0000 -0.0000 -0.0000
# 1 vertex normals

vt 0.9583 0.9220 0.0000
vt 0.9583 0.0780 0.0000
# 2 texture coords

o Object004
g Object004
usemtl wire_088088225
s off
f 1/1/1 2/2/1 3/2/1 
f 4/1/1 1/1/1 3/2/1 
# 0 polygons - 2 triangles

#
# object Highrise_3
#

v  -1.9231 -3.2562 -1.9955
v  1.9231 -3.2562 -1.9955
v  1.9231 -7.0570 -1.9955
v  -1.9231 -7.0570 -1.9955
v  -1.9231 0.9469 -1.9955
v  1.9231 0.9469 -1.9955
v  1.9231 -2.8539 -1.9955
v  -1.9231 -2.8539 -1.9955
v  -1.9231 5.1500 -1.9955
v  1.9231 5.1500 -1.9955
v  1.9231 1.3492 -1.9955
v  -1.9231 1.3492 -1.9955
v  -1.9955 -3.2562 1.9231
v  -1.9955 -3.2562 -1.9231
v  -1.9955 -7.0570 -1.9231
v  -1.9955 -7.0570 1.9231
v  -1.9955 0.9469 1.9231
v  -1.9955 0.9469 -1.9231
v  -1.9955 -2.8539 -1.9231
v  -1.9955 -2.8539 1.9231
v  -1.9955 5.1500 1.9231
v  -1.9955 5.1500 -1.9231
v  -1.9955 1.3492 -1.9231
v  -1.9955 1.3492 1.9231
v  1.9231 -3.2562 1.9955
v  -1.9231 -3.2562 1.9955
v  -1.9231 -7.0570 1.9955
v  1.9231 -7.0570 1.9955
v  1.9231 0.9469 1.9955
v  -1.9231 0.9469 1.9955
v  -1.9231 -2.8539 1.9955
v  1.9231 -2.8539 1.9955
v  1.9231 5.1500 1.9955
v  -1.9231 5.1500 1.9955
v  -1.9231 1.3492 1.9955
v  1.9231 1.3492 1.9955
v  1.9955 -3.2562 -1.9231
v  1.9955 -3.2562 1.9231
v  1.9955 -7.0570 1.9231
v  1.9955 -7.0570 -1.9231
v  1.9955 0.9469 -1.9231
v  1.9955 0.9469 1.9231
v  1.9955 -2.8539 1.9231
v  1.9955 -2.8539 -1.9231
v  1.9955 5.1500 -1.9231
v  1.9955 5.1500 1.9231
v  1.9955 1.3492 1.9231
v  1.9955 1.3492 -1.9231
v  -1.3765 7.2582 0.5472
v  -0.2822 7.2582 0.5472
v  -0.2822 7.2582 -0.5472
v  -1.3765 7.2582 -0.5472
v  -2.1243 -7.2582 -2.1243
v  2.1243 -7.2582 -2.1243
v  2.1243 -7.2582 2.1243
v  -2.1243 -7.2582 2.1243
v  -1.9231 -7.0570 -2.1243
v  1.9231 -7.0570 -2.1243
v  -1.9231 -3.2562 -2.1243
v  -2.1243 -3.0551 -2.1243
v  1.9231 -3.2562 -2.1243
v  2.1243 -3.0551 -2.1243
v  -1.9231 -2.8539 -2.1243
v  1.9231 -2.8539 -2.1243
v  -1.9231 0.9469 -2.1243
v  -2.1243 1.1480 -2.1243
v  1.9231 0.9469 -2.1243
v  2.1243 1.1480 -2.1243
v  -1.9231 1.3492 -2.1243
v  1.9231 1.3492 -2.1243
v  -1.9231 5.1500 -2.1243
v  -2.1243 5.3512 -2.1243
v  1.9231 5.1500 -2.1243
v  2.1243 5.3512 -2.1243
v  -2.1243 -7.0570 1.9231
v  -2.1243 -7.0570 -1.9231
v  -2.1243 -3.2562 1.9231
v  -2.1243 -3.0551 2.1243
v  -2.1243 -3.2562 -1.9231
v  -2.1243 -2.8539 1.9231
v  -2.1243 -2.8539 -1.9231
v  -2.1243 0.9469 1.9231
v  -2.1243 1.1480 2.1243
v  -2.1243 0.9469 -1.9231
v  -2.1243 1.3492 1.9231
v  -2.1243 1.3492 -1.9231
v  -2.1243 5.1500 1.9231
v  -2.1243 5.3512 2.1243
v  -2.1243 5.1500 -1.9231
v  1.9231 -7.0570 2.1243
v  -1.9231 -7.0570 2.1243
v  1.9231 -3.2562 2.1243
v  2.1243 -3.0551 2.1243
v  -1.9231 -3.2562 2.1243
v  1.9231 -2.8539 2.1243
v  -1.9231 -2.8539 2.1243
v  1.9231 0.9469 2.1243
v  2.1243 1.1480 2.1243
v  -1.9231 0.9469 2.1243
v  1.9231 1.3492 2.1243
v  -1.9231 1.3492 2.1243
v  1.9231 5.1500 2.1243
v  2.1243 5.3512 2.1243
v  -1.9231 5.1500 2.1243
v  2.1243 -7.0570 -1.9231
v  2.1243 -7.0570 1.9231
v  2.1243 -3.2562 -1.9231
v  2.1243 -3.2562 1.9231
v  2.1243 -2.8539 -1.9231
v  2.1243 -2.8539 1.9231
v  2.1243 0.9469 -1.9231
v  2.1243 0.9469 1.9231
v  2.1243 1.3492 -1.9231
v  2.1243 1.3492 1.9231
v  2.1243 5.1500 -1.9231
v  2.1243 5.1500 1.9231
v  -1.9473 5.3512 -1.9473
v  1.9472 5.3512 -1.9473
v  -1.9473 5.3512 1.9472
v  1.9472 5.3512 1.9472
v  -1.8185 6.4978 -1.8869
v  1.8185 6.4978 -1.8869
v  1.8185 5.4799 -1.8869
v  -1.8185 5.4799 -1.8869
v  1.8185 6.4978 1.8869
v  -1.8185 6.4978 1.8869
v  -1.8185 5.4799 1.8869
v  1.8185 5.4799 1.8869
v  1.8869 6.4978 -1.8185
v  1.8869 6.4978 1.8185
v  1.8869 5.4799 1.8185
v  1.8869 5.4799 -1.8185
v  -1.7300 6.6265 -1.7300
v  1.7300 6.6265 -1.7300
v  1.9472 6.6265 -1.9473
v  -1.9473 6.6265 -1.9473
v  -1.7300 6.6265 1.7300
v  -1.9473 6.6265 1.9472
v  1.7300 6.6265 1.7300
v  1.9472 6.6265 1.9472
v  -1.7300 7.0087 -1.7300
v  1.7300 7.0087 -1.7300
v  -1.7300 7.0087 1.7300
v  1.7300 7.0087 1.7300
v  -1.5932 7.0087 -1.5932
v  1.5932 7.0087 -1.5932
v  -1.5932 7.0087 1.5932
v  1.5932 7.0087 1.5932
v  -1.5932 6.8800 -1.5932
v  1.5932 6.8800 -1.5932
v  -1.5932 6.8800 1.5932
v  1.5932 6.8800 1.5932
v  -1.3765 6.8800 -0.5472
v  -0.2822 6.8800 -0.5472
v  -1.3765 6.8800 0.5472
v  -0.2822 6.8800 0.5472
v  -1.8185 5.4799 -1.9473
v  1.8185 5.4799 -1.9473
v  -1.8185 6.4978 -1.9473
v  1.8185 6.4978 -1.9473
v  -1.9473 5.4799 1.8185
v  -1.9473 5.4799 -1.8185
v  -1.9473 6.4978 1.8185
v  -1.9473 6.4978 -1.8185
v  1.8185 5.4799 1.9472
v  -1.8185 5.4799 1.9472
v  1.8185 6.4978 1.9472
v  -1.8185 6.4978 1.9472
v  1.9472 5.4799 -1.8185
v  1.9472 5.4799 1.8185
v  1.9472 6.4978 -1.8185
v  1.9472 6.4978 1.8185
v  -1.8869 5.4799 1.8185
v  -1.8869 5.4799 -1.8185
v  -1.8869 6.4978 1.8185
v  -1.8869 6.4978 -1.8185
# 176 vertices

vn 0.5774 -0.5774 -0.5774
vn -0.5774 -0.5774 -0.5774
vn -0.5774 0.5774 -0.5774
vn 0.5774 0.5774 -0.5774
vn -0.5774 -0.5774 0.5774
vn -0.5774 0.5774 0.5774
vn 0.5774 -0.5774 0.5774
vn 0.5774 0.5774 0.5774
vn 0.0000 -1.0000 -0.0000
vn 0.7071 -0.7071 -0.0000
vn -0.7071 -0.7071 -0.0000
vn 0.3015 0.3015 -0.9045
vn -0.3015 0.3015 -0.9045
vn 0.0000 0.0000 -1.0000
vn 0.3015 -0.3015 -0.9045
vn -0.3015 -0.3015 -0.9045
vn -0.9045 0.3015 -0.3015
vn -0.9045 0.3015 0.3015
vn -1.0000 -0.0000 -0.0000
vn -0.9045 -0.3015 -0.3015
vn -1.0000 0.0000 0.0000
vn -0.9045 -0.3015 0.3015
vn -1.0000 -0.0000 0.0000
vn -0.7071 0.7071 -0.0000
vn -0.3015 0.3015 0.9045
vn 0.3015 0.3015 0.9045
vn 0.0000 0.0000 1.0000
vn -0.3015 -0.3015 0.9045
vn 0.3015 -0.3015 0.9045
vn 0.9045 0.3015 0.3015
vn 0.9045 0.3015 -0.3015
vn 1.0000 0.0000 -0.0000
vn 0.9045 -0.3015 0.3015
vn 0.9045 -0.3015 -0.3015
vn 1.0000 0.0000 0.0000
vn 1.0000 -0.0000 -0.0000
vn 0.7071 0.7071 0.0000
vn -0.3015 0.9045 -0.3015
vn 0.3015 0.9045 -0.3015
vn -0.0000 1.0000 -0.0000
vn -0.0000 1.0000 0.0000
vn -0.3015 0.9045 0.3015
vn 0.3015 0.9045 0.3015
vn -0.5773 0.5774 0.5774
vn 0.5774 0.5774 0.5773
vn -0.0000 0.7071 -0.7071
vn -0.0000 0.7071 0.7071
vn 0.0000 -0.7071 -0.7071
vn 0.0000 -0.7071 0.7071
# 49 vertex normals

vt 0.9524 0.3175 0.0000
vt 0.0476 0.3175 0.0000
vt 0.0476 0.0159 0.0000
vt 0.9524 0.0159 0.0000
vt 0.9524 0.6508 0.0000
vt 0.0476 0.6508 0.0000
vt 0.0476 0.3492 0.0000
vt 0.9524 0.3492 0.0000
vt 0.9524 0.9841 0.0000
vt 0.0476 0.9841 0.0000
vt 0.0476 0.6825 0.0000
vt 0.9524 0.6825 0.0000
vt 0.6288 0.6288 0.0000
vt 0.3712 0.6288 0.0000
vt 0.3712 0.3712 0.0000
vt 0.6288 0.3712 0.0000
vt 1.0000 1.0000 0.0000
vt 0.0000 1.0000 0.0000
vt 0.0000 0.0000 0.0000
vt 1.0000 0.0000 0.0000
vt 1.0000 0.3333 0.0000
vt 0.0000 0.3333 0.0000
vt 1.0000 0.6667 0.0000
vt 0.0000 0.6667 0.0000
vt 0.9583 0.0417 0.0000
vt 0.0417 0.0417 0.0000
vt 0.9583 0.9583 0.0000
vt 0.0417 0.9583 0.0000
vt 0.9220 0.0417 0.0000
vt 0.0780 0.0417 0.0000
vt 0.0780 0.9583 0.0000
vt 0.9220 0.9583 0.0000
vt 0.0417 0.0780 0.0000
vt 0.0417 0.9220 0.0000
vt 0.9072 0.0928 0.0000
vt 0.0928 0.0928 0.0000
vt 0.9072 0.9072 0.0000
vt 0.0928 0.9072 0.0000
vt 0.8750 0.1250 0.0000
vt 0.1250 0.1250 0.0000
vt 0.8750 0.8750 0.0000
vt 0.1250 0.8750 0.0000
vt 0.9583 0.9220 0.0000
vt 0.9583 0.0780 0.0000
# 44 texture coords

o Highrise_3
g Highrise_3
usemtl wire_088088225
s off
f 5/3/2 6/4/3 7/5/4 
f 8/6/5 5/3/2 7/5/4 
f 9/7/2 10/8/3 11/9/4 
f 12/10/5 9/7/2 11/9/4 
f 13/11/2 14/12/3 15/13/4 
f 16/14/5 13/11/2 15/13/4 
f 17/3/3 18/4/6 19/5/7 
f 20/6/4 17/3/3 19/5/7 
f 21/7/3 22/8/6 23/9/7 
f 24/10/4 21/7/3 23/9/7 
f 25/11/3 26/12/6 27/13/7 
f 28/14/4 25/11/3 27/13/7 
f 29/3/6 30/4/8 31/5/9 
f 32/6/7 29/3/6 31/5/9 
f 33/7/6 34/8/8 35/9/9 
f 36/10/7 33/7/6 35/9/9 
f 37/11/6 38/12/8 39/13/9 
f 40/14/7 37/11/6 39/13/9 
f 41/3/8 42/4/2 43/5/5 
f 44/6/9 41/3/8 43/5/5 
f 45/7/8 46/8/2 47/9/5 
f 48/10/9 45/7/8 47/9/5 
f 49/11/8 50/12/2 51/13/5 
f 52/14/9 49/11/8 51/13/5 
f 53/15/7 54/16/9 55/17/5 
f 56/18/4 53/15/7 55/17/5 
f 57/19/10 58/20/10 59/21/11 
f 60/22/12 57/19/10 59/21/11 
f 61/6/13 62/5/14 58/21/15 
f 57/22/15 61/6/13 58/21/15 
f 63/3/16 61/6/13 57/22/15 
f 64/23/15 63/3/16 57/22/15 
f 65/4/17 63/3/16 64/23/15 
f 66/24/15 65/4/17 64/23/15 
f 62/5/14 65/4/17 66/24/15 
f 58/21/15 62/5/14 66/24/15 
f 67/10/13 68/9/14 66/24/15 
f 64/23/15 67/10/13 66/24/15 
f 69/7/16 67/10/13 64/23/15 
f 70/25/15 69/7/16 64/23/15 
f 71/8/17 69/7/16 70/25/15 
f 72/26/15 71/8/17 70/25/15 
f 68/9/14 71/8/17 72/26/15 
f 66/24/15 68/9/14 72/26/15 
f 73/14/13 74/13/14 72/26/15 
f 70/25/15 73/14/13 72/26/15 
f 75/11/16 73/14/13 70/25/15 
f 76/19/15 75/11/16 70/25/15 
f 77/12/17 75/11/16 76/19/15 
f 78/20/15 77/12/17 76/19/15 
f 74/13/14 77/12/17 78/20/15 
f 72/26/15 74/13/14 78/20/15 
f 79/6/18 80/5/19 57/21/20 
f 60/22/12 79/6/18 57/21/20 
f 81/3/21 79/6/18 60/22/12 
f 82/23/22 81/3/21 60/22/12 
f 83/4/23 81/3/21 82/23/22 
f 64/24/20 83/4/23 82/23/22 
f 80/5/19 83/4/23 64/24/20 
f 57/21/20 80/5/19 64/24/20 
f 84/10/18 85/9/19 64/24/20 
f 82/23/22 84/10/18 64/24/20 
f 86/7/21 84/10/18 82/23/22 
f 87/25/24 86/7/21 82/23/22 
f 88/8/23 86/7/21 87/25/24 
f 70/26/24 88/8/23 87/25/24 
f 85/9/19 88/8/23 70/26/24 
f 64/24/20 85/9/19 70/26/24 
f 89/14/18 90/13/19 70/26/24 
f 87/25/24 89/14/18 70/26/24 
f 91/11/21 89/14/18 87/25/24 
f 92/19/25 91/11/21 87/25/24 
f 93/12/23 91/11/21 92/19/25 
f 76/20/20 93/12/23 92/19/25 
f 90/13/19 93/12/23 76/20/20 
f 70/26/24 90/13/19 76/20/20 
f 94/6/26 95/5/27 60/21/28 
f 59/22/28 94/6/26 60/21/28 
f 96/3/29 94/6/26 59/22/28 
f 97/23/28 96/3/29 59/22/28 
f 98/4/30 96/3/29 97/23/28 
f 82/24/28 98/4/30 97/23/28 
f 95/5/27 98/4/30 82/24/28 
f 60/21/28 95/5/27 82/24/28 
f 99/10/26 100/9/27 82/24/28 
f 97/23/28 99/10/26 82/24/28 
f 101/7/29 99/10/26 97/23/28 
f 102/25/28 101/7/29 97/23/28 
f 103/8/30 101/7/29 102/25/28 
f 87/26/28 103/8/30 102/25/28 
f 100/9/27 103/8/30 87/26/28 
f 82/24/28 100/9/27 87/26/28 
f 104/14/26 105/13/27 87/26/28 
f 102/25/28 104/14/26 87/26/28 
f 106/11/29 104/14/26 102/25/28 
f 107/19/28 106/11/29 102/25/28 
f 108/12/30 106/11/29 107/19/28 
f 92/20/28 108/12/30 107/19/28 
f 105/13/27 108/12/30 92/20/28 
f 87/26/28 105/13/27 92/20/28 
f 109/6/31 110/5/32 59/21/11 
f 58/22/33 109/6/31 59/21/11 
f 111/3/34 109/6/31 58/22/33 
f 66/23/33 111/3/34 58/22/33 
f 112/4/35 111/3/34 66/23/33 
f 97/24/33 112/4/35 66/23/33 
f 110/5/32 112/4/35 97/24/33 
f 59/21/11 110/5/32 97/24/33 
f 113/10/31 114/9/32 97/24/33 
f 66/23/33 113/10/31 97/24/33 
f 115/7/34 113/10/31 66/23/33 
f 72/25/36 115/7/34 66/23/33 
f 116/8/35 115/7/34 72/25/36 
f 102/26/37 116/8/35 72/25/36 
f 114/9/32 116/8/35 102/26/37 
f 97/24/33 114/9/32 102/26/37 
f 117/14/31 118/13/32 102/26/37 
f 72/25/36 117/14/31 102/26/37 
f 119/11/34 117/14/31 72/25/36 
f 78/19/33 119/11/34 72/25/36 
f 120/12/35 119/11/34 78/19/33 
f 107/20/38 120/12/35 78/19/33 
f 118/13/32 120/12/35 107/20/38 
f 102/26/37 118/13/32 107/20/38 
f 8/6/5 7/5/4 62/5/14 
f 61/6/13 8/6/5 62/5/14 
f 5/3/2 8/6/5 61/6/13 
f 63/3/16 5/3/2 61/6/13 
f 6/4/3 5/3/2 63/3/16 
f 65/4/17 6/4/3 63/3/16 
f 7/5/4 6/4/3 65/4/17 
f 62/5/14 7/5/4 65/4/17 
f 12/10/5 11/9/4 68/9/14 
f 67/10/13 12/10/5 68/9/14 
f 9/7/2 12/10/5 67/10/13 
f 69/7/16 9/7/2 67/10/13 
f 10/8/3 9/7/2 69/7/16 
f 71/8/17 10/8/3 69/7/16 
f 11/9/4 10/8/3 71/8/17 
f 68/9/14 11/9/4 71/8/17 
f 16/14/5 15/13/4 74/13/14 
f 73/14/13 16/14/5 74/13/14 
f 13/11/2 16/14/5 73/14/13 
f 75/11/16 13/11/2 73/14/13 
f 14/12/3 13/11/2 75/11/16 
f 77/12/17 14/12/3 75/11/16 
f 15/13/4 14/12/3 77/12/17 
f 74/13/14 15/13/4 77/12/17 
f 20/6/4 19/5/7 80/5/19 
f 79/6/18 20/6/4 80/5/19 
f 17/3/3 20/6/4 79/6/18 
f 81/3/21 17/3/3 79/6/18 
f 18/4/6 17/3/3 81/3/21 
f 83/4/23 18/4/6 81/3/21 
f 19/5/7 18/4/6 83/4/23 
f 80/5/19 19/5/7 83/4/23 
f 24/10/4 23/9/7 85/9/19 
f 84/10/18 24/10/4 85/9/19 
f 21/7/3 24/10/4 84/10/18 
f 86/7/21 21/7/3 84/10/18 
f 22/8/6 21/7/3 86/7/21 
f 88/8/23 22/8/6 86/7/21 
f 23/9/7 22/8/6 88/8/23 
f 85/9/19 23/9/7 88/8/23 
f 28/14/4 27/13/7 90/13/19 
f 89/14/18 28/14/4 90/13/19 
f 25/11/3 28/14/4 89/14/18 
f 91/11/21 25/11/3 89/14/18 
f 26/12/6 25/11/3 91/11/21 
f 93/12/23 26/12/6 91/11/21 
f 27/13/7 26/12/6 93/12/23 
f 90/13/19 27/13/7 93/12/23 
f 32/6/7 31/5/9 95/5/27 
f 94/6/26 32/6/7 95/5/27 
f 29/3/6 32/6/7 94/6/26 
f 96/3/29 29/3/6 94/6/26 
f 30/4/8 29/3/6 96/3/29 
f 98/4/30 30/4/8 96/3/29 
f 31/5/9 30/4/8 98/4/30 
f 95/5/27 31/5/9 98/4/30 
f 36/10/7 35/9/9 100/9/27 
f 99/10/26 36/10/7 100/9/27 
f 33/7/6 36/10/7 99/10/26 
f 101/7/29 33/7/6 99/10/26 
f 34/8/8 33/7/6 101/7/29 
f 103/8/30 34/8/8 101/7/29 
f 35/9/9 34/8/8 103/8/30 
f 100/9/27 35/9/9 103/8/30 
f 40/14/7 39/13/9 105/13/27 
f 104/14/26 40/14/7 105/13/27 
f 37/11/6 40/14/7 104/14/26 
f 106/11/29 37/11/6 104/14/26 
f 38/12/8 37/11/6 106/11/29 
f 108/12/30 38/12/8 106/11/29 
f 39/13/9 38/12/8 108/12/30 
f 105/13/27 39/13/9 108/12/30 
f 44/6/9 43/5/5 110/5/32 
f 109/6/31 44/6/9 110/5/32 
f 41/3/8 44/6/9 109/6/31 
f 111/3/34 41/3/8 109/6/31 
f 42/4/2 41/3/8 111/3/34 
f 112/4/35 42/4/2 111/3/34 
f 43/5/5 42/4/2 112/4/35 
f 110/5/32 43/5/5 112/4/35 
f 48/10/9 47/9/5 114/9/32 
f 113/10/31 48/10/9 114/9/32 
f 45/7/8 48/10/9 113/10/31 
f 115/7/34 45/7/8 113/10/31 
f 46/8/2 45/7/8 115/7/34 
f 116/8/35 46/8/2 115/7/34 
f 47/9/5 46/8/2 116/8/35 
f 114/9/32 47/9/5 116/8/35 
f 52/14/9 51/13/5 118/13/32 
f 117/14/31 52/14/9 118/13/32 
f 49/11/8 52/14/9 117/14/31 
f 119/11/34 49/11/8 117/14/31 
f 50/12/2 49/11/8 119/11/34 
f 120/12/35 50/12/2 119/11/34 
f 51/13/5 50/12/2 120/12/35 
f 118/13/32 51/13/5 120/12/35 
f 121/27/39 122/28/40 78/21/41 
f 76/22/42 121/27/39 78/21/41 
f 123/29/43 121/27/39 76/22/42 
f 92/19/25 123/29/43 76/22/42 
f 124/30/44 123/29/43 92/19/25 
f 107/20/38 124/30/44 92/19/25 
f 122/28/40 124/30/44 107/20/38 
f 78/21/41 122/28/40 107/20/38 
f 125/31/2 126/32/3 127/32/4 
f 128/31/5 125/31/2 127/32/4 
f 129/33/6 130/34/8 131/34/9 
f 132/33/45 129/33/6 131/34/9 
f 133/35/8 134/36/2 135/36/5 
f 136/35/9 133/35/8 135/36/5 
f 137/37/39 138/38/40 139/28/5 
f 140/27/4 137/37/39 139/28/5 
f 141/39/43 137/37/39 140/27/4 
f 142/29/7 141/39/43 140/27/4 
f 143/40/44 141/39/43 142/29/7 
f 144/30/9 143/40/44 142/29/7 
f 138/38/40 143/40/44 144/30/9 
f 139/28/5 138/38/40 144/30/9 
f 145/37/4 146/38/5 138/38/40 
f 137/37/39 145/37/4 138/38/40 
f 147/39/7 145/37/4 137/37/39 
f 141/39/43 147/39/7 137/37/39 
f 148/40/9 147/39/7 141/39/43 
f 143/40/44 148/40/9 141/39/43 
f 146/38/5 148/40/9 143/40/44 
f 138/38/40 146/38/5 143/40/44 
f 149/41/44 150/42/43 146/38/5 
f 145/37/4 149/41/44 146/38/5 
f 151/43/40 149/41/44 145/37/4 
f 147/39/7 151/43/40 145/37/4 
f 152/44/39 151/43/40 147/39/7 
f 148/40/9 152/44/39 147/39/7 
f 150/42/43 152/44/39 148/40/9 
f 146/38/5 150/42/43 148/40/9 
f 153/41/46 154/42/7 150/42/43 
f 149/41/44 153/41/46 150/42/43 
f 155/43/5 153/41/46 149/41/44 
f 151/43/40 155/43/5 149/41/44 
f 156/44/4 155/43/5 151/43/40 
f 152/44/39 156/44/4 151/43/40 
f 154/42/7 156/44/4 152/44/39 
f 150/42/43 154/42/7 152/44/39 
f 157/18/39 158/17/40 154/42/7 
f 153/41/46 157/18/39 154/42/7 
f 159/15/43 157/18/39 153/41/46 
f 155/43/5 159/15/43 153/41/46 
f 160/16/44 159/15/43 155/43/5 
f 156/44/4 160/16/44 155/43/5 
f 158/17/40 160/16/44 156/44/4 
f 154/42/7 158/17/40 156/44/4 
f 56/18/4 55/17/5 158/17/40 
f 157/18/39 56/18/4 158/17/40 
f 53/15/7 56/18/4 157/18/39 
f 159/15/43 53/15/7 157/18/39 
f 54/16/9 53/15/7 159/15/43 
f 160/16/44 54/16/9 159/15/43 
f 55/17/5 54/16/9 160/16/44 
f 158/17/40 55/17/5 160/16/44 
f 161/31/13 162/32/14 122/28/40 
f 121/27/39 161/31/13 122/28/40 
f 163/31/16 161/31/13 121/27/39 
f 140/27/4 163/31/16 121/27/39 
f 164/32/17 163/31/16 140/27/4 
f 139/28/5 164/32/17 140/27/4 
f 162/32/14 164/32/17 139/28/5 
f 122/28/40 162/32/14 139/28/5 
f 165/45/18 166/46/19 121/27/39 
f 123/29/43 165/45/18 121/27/39 
f 167/45/21 165/45/18 123/29/43 
f 142/29/7 167/45/21 123/29/43 
f 168/46/23 167/45/21 142/29/7 
f 140/27/4 168/46/23 142/29/7 
f 166/46/19 168/46/23 140/27/4 
f 121/27/39 166/46/19 140/27/4 
f 169/33/26 170/34/27 123/29/43 
f 124/30/44 169/33/26 123/29/43 
f 171/33/29 169/33/26 124/30/44 
f 144/30/9 171/33/29 124/30/44 
f 172/34/30 171/33/29 144/30/9 
f 142/29/7 172/34/30 144/30/9 
f 170/34/27 172/34/30 142/29/7 
f 123/29/43 170/34/27 142/29/7 
f 173/35/31 174/36/32 124/30/44 
f 122/28/40 173/35/31 124/30/44 
f 175/35/34 173/35/31 122/28/40 
f 139/28/5 175/35/34 122/28/40 
f 176/36/35 175/35/34 139/28/5 
f 144/30/9 176/36/35 139/28/5 
f 174/36/32 176/36/35 144/30/9 
f 124/30/44 174/36/32 144/30/9 
f 128/31/5 127/32/4 162/32/14 
f 161/31/13 128/31/5 162/32/14 
f 125/31/2 128/31/5 161/31/13 
f 163/31/16 125/31/2 161/31/13 
f 126/32/3 125/31/2 163/31/16 
f 164/32/17 126/32/3 163/31/16 
f 127/32/4 126/32/3 164/32/17 
f 162/32/14 127/32/4 164/32/17 
f 177/45/47 178/46/48 166/46/19 
f 165/45/18 177/45/47 166/46/19 
f 179/45/49 177/45/47 165/45/18 
f 167/45/21 179/45/49 165/45/18 
f 180/46/50 179/45/49 167/45/21 
f 168/46/23 180/46/50 167/45/21 
f 178/46/48 180/46/50 168/46/23 
f 166/46/19 178/46/48 168/46/23 
f 132/33/45 131/34/9 170/34/27 
f 169/33/26 132/33/45 170/34/27 
f 129/33/6 132/33/45 169/33/26 
f 171/33/29 129/33/6 169/33/26 
f 130/34/8 129/33/6 171/33/29 
f 172/34/30 130/34/8 171/33/29 
f 131/34/9 130/34/8 172/34/30 
f 170/34/27 131/34/9 172/34/30 
f 136/35/9 135/36/5 174/36/32 
f 173/35/31 136/35/9 174/36/32 
f 133/35/8 136/35/9 173/35/31 
f 175/35/34 133/35/8 173/35/31 
f 134/36/2 133/35/8 175/35/34 
f 176/36/35 134/36/2 175/35/34 
f 135/36/5 134/36/2 176/36/35 
f 174/36/32 135/36/5 176/36/35 
# 0 polygons - 346 triangles

